<svg width="320" height="296" viewBox="0 0 320 296" fill="none" xmlns="http://www.w3.org/2000/svg">
<path d="M220.037 24.4813C221.767 14.2634 214.492 4.64146 203.789 2.99009C193.086 1.33871 183.007 8.28323 181.278 18.5011C179.548 28.719 186.822 38.3409 197.525 39.9923C208.228 41.6436 218.307 34.6991 220.037 24.4813Z" fill="#EBEBEB"/>
<path d="M220.126 25.5442C221.791 15.8243 214.888 6.65579 204.706 5.06583C194.525 3.47587 184.921 10.0665 183.255 19.7865C181.59 29.5064 188.493 38.6749 198.675 40.2649C208.856 41.8548 218.46 35.2642 220.126 25.5442Z" fill="#DBDBDB"/>
<path d="M209.39 37.816C218.378 34.31 222.687 24.512 219.014 15.9315C215.342 7.35105 205.079 3.23739 196.091 6.74338C187.103 10.2494 182.794 20.0474 186.466 28.6279C190.139 37.2083 200.402 41.322 209.39 37.816Z" fill="white"/>
<path d="M201.924 7.16968H201.477V9.7053H201.924V7.16968Z" fill="#EBEBEB"/>
<path d="M193.787 9.15948L193.399 9.37305L194.727 11.5692L195.114 11.3556L193.787 9.15948Z" fill="#EBEBEB"/>
<path d="M187.974 13.9435L187.75 14.3152L190.06 15.583L190.284 15.2113L187.974 13.9435Z" fill="#EBEBEB"/>
<path d="M188.13 22.4536H185.474V22.8809H188.13V22.4536Z" fill="#EBEBEB"/>
<path d="M189.841 28.9713L187.541 30.2395L187.765 30.6095L190.065 29.3413L189.841 28.9713Z" fill="#EBEBEB"/>
<path d="M194.721 33.7773L193.395 35.9739L193.782 36.1873L195.109 33.9907L194.721 33.7773Z" fill="#EBEBEB"/>
<path d="M201.924 35.6292H201.477V38.1648H201.924V35.6292Z" fill="#EBEBEB"/>
<path d="M208.69 33.8025L208.302 34.0161L209.631 36.212L210.018 35.9984L208.69 33.8025Z" fill="#EBEBEB"/>
<path d="M213.564 28.9632L213.34 29.3333L215.634 30.5976L215.858 30.2275L213.564 28.9632Z" fill="#EBEBEB"/>
<path d="M217.934 22.4536H215.278V22.8809H217.934V22.4536Z" fill="#EBEBEB"/>
<path d="M215.637 14.7308L213.343 15.9951L213.567 16.3651L215.861 15.1008L215.637 14.7308Z" fill="#EBEBEB"/>
<path d="M209.637 9.15059L208.311 11.3472L208.698 11.5606L210.025 9.36403L209.637 9.15059Z" fill="#EBEBEB"/>
<path d="M204.294 17.3056L196.616 31.7151L197.015 31.9088L204.692 17.4994L204.294 17.3056Z" fill="#EBEBEB"/>
<path d="M200.806 16.9231L200.223 17.0344L203.496 32.6459L204.079 32.5345L200.806 16.9231Z" fill="#DBDBDB"/>
<path d="M144.204 143.239H18.2402V4.36792H144.204V143.239ZM21.1677 140.437H141.269V7.16972H21.1751L21.1677 140.437Z" fill="#EBEBEB"/>
<path d="M81.5445 7.90527H78.6096V141.838H81.5445V7.90527Z" fill="#EBEBEB"/>
<path d="M146.874 10.0347H15.5767V13.9362H146.874V10.0347Z" fill="#EBEBEB"/>
<path d="M146.874 14.4263H15.5767V18.3278H146.874V14.4263Z" fill="#EBEBEB"/>
<path d="M146.874 18.8113H15.5767V22.7128H146.874V18.8113Z" fill="#EBEBEB"/>
<path d="M146.874 23.2031H15.5767V27.1046H146.874V23.2031Z" fill="#EBEBEB"/>
<path d="M146.874 27.5945H15.5767V31.496H146.874V27.5945Z" fill="#EBEBEB"/>
<path d="M146.874 31.9797H15.5767V35.8812H146.874V31.9797Z" fill="#EBEBEB"/>
<path d="M146.874 36.3713H15.5767V40.2728H146.874V36.3713Z" fill="#EBEBEB"/>
<path d="M146.874 40.7632H15.5767V44.6647H146.874V40.7632Z" fill="#EBEBEB"/>
<path d="M146.874 45.1482H15.5767V49.0497H146.874V45.1482Z" fill="#EBEBEB"/>
<path d="M138.157 9.24292H137.424V99.1736H138.157V9.24292Z" fill="#263238"/>
<path d="M139.089 102.438H136.484L137.137 98.8655H138.436L139.089 102.438Z" fill="#263238"/>
<path d="M140.799 9.24292H140.065V139.337H140.799V9.24292Z" fill="#263238"/>
<path d="M141.73 141.964H139.133L139.779 138.392H141.085L141.73 141.964Z" fill="#263238"/>
<path d="M151.423 3.82153H11.0203V11.9818H151.423V3.82153Z" fill="#DBDBDB"/>
<path d="M314.776 35.9583H235.624V131.114H314.776V35.9583Z" fill="#EBEBEB"/>
<path d="M304.702 55.6196H245.426V57.4198H304.702V55.6196Z" fill="#DBDBDB"/>
<path d="M295.619 59.3882H245.426V61.1883H295.619V59.3882Z" fill="#DBDBDB"/>
<path d="M283.703 63.1494H245.426V64.9496H283.703V63.1494Z" fill="#DBDBDB"/>
<path d="M302.633 66.918H245.426V68.7181H302.633V66.918Z" fill="#DBDBDB"/>
<path d="M297.768 70.6794H245.426V72.4796H297.768V70.6794Z" fill="#DBDBDB"/>
<path d="M299.742 78.209H245.426V80.0091H299.742V78.209Z" fill="#DBDBDB"/>
<path d="M266.234 81.9778H245.426V83.7779H266.234V81.9778Z" fill="#DBDBDB"/>
<path d="M287.386 85.739H245.426V87.5392H287.386V85.739Z" fill="#DBDBDB"/>
<path d="M302.633 89.5076H245.426V91.3077H302.633V89.5076Z" fill="#DBDBDB"/>
<path d="M294.753 93.2688H245.426V95.069H294.753V93.2688Z" fill="#DBDBDB"/>
<path d="M298.876 100.799H245.426V102.599H298.876V100.799Z" fill="#DBDBDB"/>
<path d="M277.782 104.567H245.426V106.367H277.782V104.567Z" fill="#DBDBDB"/>
<path d="M277.782 115.964H245.426V117.764H277.782V115.964Z" fill="#DBDBDB"/>
<path d="M299.706 123.486C303.016 123.486 305.7 120.924 305.7 117.763C305.7 114.603 303.016 112.041 299.706 112.041C296.395 112.041 293.711 114.603 293.711 117.763C293.711 120.924 296.395 123.486 299.706 123.486Z" fill="#FFC727"/>
<path d="M254.26 43.2917C254.98 43.2921 255.679 43.5213 256.248 43.9432C256.271 43.9596 256.291 43.9805 256.306 44.0045C256.32 44.0285 256.33 44.0551 256.333 44.0827C256.336 44.1103 256.334 44.1382 256.326 44.1648C256.317 44.1914 256.303 44.2161 256.285 44.2374C256.268 44.2592 256.247 44.2777 256.223 44.2916C256.198 44.3056 256.171 44.3148 256.143 44.3187C256.115 44.3226 256.087 44.3212 256.059 44.3144C256.032 44.3077 256.006 44.2958 255.984 44.2794C255.494 43.9071 254.886 43.7046 254.26 43.705C253.545 43.705 252.861 43.9759 252.356 44.4579C251.851 44.94 251.567 45.5939 251.567 46.2757C251.567 46.9574 251.851 47.6113 252.356 48.0934C252.861 48.5755 253.545 48.8463 254.26 48.8463C254.882 48.8553 255.487 48.6544 255.969 48.2789C255.992 48.2607 256.018 48.2474 256.047 48.2399C256.076 48.2325 256.106 48.231 256.135 48.2357C256.164 48.2403 256.192 48.251 256.217 48.2669C256.241 48.2829 256.262 48.3037 256.277 48.328C256.299 48.3464 256.317 48.369 256.329 48.3944C256.341 48.4197 256.347 48.4472 256.347 48.4751C256.347 48.5029 256.341 48.5304 256.329 48.5558C256.317 48.5811 256.299 48.6038 256.277 48.6222C255.706 49.0372 255.007 49.2611 254.289 49.2596C253.878 49.2596 253.472 49.1824 253.093 49.0324C252.714 48.8825 252.369 48.6627 252.079 48.3856C251.789 48.1085 251.558 47.7796 251.401 47.4176C251.244 47.0555 251.163 46.6675 251.163 46.2757C251.163 45.8838 251.244 45.4958 251.401 45.1338C251.558 44.7717 251.789 44.4428 252.079 44.1657C252.369 43.8886 252.714 43.6688 253.093 43.5189C253.472 43.3689 253.878 43.2917 254.289 43.2917H254.26Z" fill="#A6A6A6"/>
<path d="M260.621 43.2916C261.247 43.2607 261.868 43.4098 262.404 43.7195C262.94 44.0291 263.367 44.4852 263.629 45.0287C263.891 45.5722 263.976 46.1782 263.873 46.7684C263.77 47.3585 263.485 47.9057 263.053 48.3393C262.621 48.7729 262.063 49.0729 261.451 49.2005C260.839 49.3282 260.2 49.2777 259.619 49.0554C259.037 48.8332 258.538 48.4495 258.187 47.954C257.836 47.4584 257.649 46.8737 257.649 46.2755C257.637 45.8927 257.704 45.5113 257.847 45.1534C257.99 44.7955 258.206 44.4683 258.482 44.1907C258.758 43.9131 259.09 43.6907 259.457 43.5363C259.824 43.382 260.22 43.2988 260.621 43.2916ZM260.621 48.8461C261.159 48.8756 261.694 48.7502 262.157 48.4862C262.619 48.2222 262.988 47.8318 263.216 47.3654C263.443 46.8991 263.519 46.3782 263.433 45.8703C263.348 45.3623 263.104 44.8906 262.734 44.5163C262.365 44.1419 261.886 43.8821 261.36 43.7704C260.834 43.6587 260.284 43.7002 259.783 43.8897C259.282 44.0792 258.852 44.4079 258.549 44.8332C258.246 45.2585 258.083 45.761 258.082 46.2755C258.063 46.9376 258.319 47.5801 258.795 48.0621C259.271 48.544 259.928 48.826 260.621 48.8461Z" fill="#A6A6A6"/>
<path d="M265.625 44.2444V49.0565C265.631 49.0859 265.629 49.1161 265.622 49.145C265.614 49.1739 265.599 49.2008 265.579 49.2238C265.559 49.2467 265.534 49.2652 265.506 49.2779C265.478 49.2906 265.447 49.2972 265.416 49.2972C265.384 49.2972 265.353 49.2906 265.325 49.2779C265.297 49.2652 265.272 49.2467 265.252 49.2238C265.232 49.2008 265.217 49.1739 265.21 49.145C265.202 49.1161 265.201 49.0859 265.207 49.0565V43.6631C265.192 43.6231 265.191 43.5797 265.204 43.5393C265.217 43.4989 265.244 43.4637 265.28 43.4389C265.327 43.4084 265.385 43.3964 265.441 43.4056C265.497 43.4147 265.547 43.4442 265.581 43.488L269.315 48.3911V43.607C269.315 43.5543 269.337 43.5037 269.375 43.4658C269.413 43.4279 269.466 43.4057 269.521 43.4039C269.549 43.403 269.578 43.4075 269.604 43.4173C269.631 43.4271 269.655 43.4419 269.676 43.4609C269.696 43.4798 269.713 43.5025 269.724 43.5276C269.735 43.5528 269.741 43.5798 269.741 43.607V49.0215C269.741 49.0488 269.735 49.0758 269.724 49.1009C269.713 49.126 269.696 49.1487 269.676 49.1677C269.655 49.1866 269.631 49.2014 269.604 49.2112C269.578 49.221 269.549 49.2256 269.521 49.2246C269.489 49.2244 269.459 49.2173 269.431 49.2039C269.403 49.1906 269.378 49.1713 269.359 49.1476C269.351 49.1448 269.343 49.1402 269.337 49.1341C269.33 49.1281 269.326 49.1207 269.323 49.1126L265.625 44.2444Z" fill="#A6A6A6"/>
<path d="M273.468 43.7892H271.612C271.555 43.7874 271.5 43.7645 271.461 43.7253C271.421 43.6861 271.399 43.6336 271.399 43.5791C271.401 43.5258 271.424 43.4751 271.463 43.4374C271.503 43.3997 271.556 43.3777 271.612 43.376H275.75C275.806 43.3777 275.859 43.3997 275.898 43.4374C275.938 43.4751 275.961 43.5258 275.963 43.5791C275.963 43.6336 275.94 43.6861 275.901 43.7253C275.861 43.7645 275.807 43.7874 275.75 43.7892H273.894V49.0566C273.894 49.1105 273.871 49.1622 273.831 49.2003C273.791 49.2383 273.737 49.2597 273.681 49.2597C273.624 49.2597 273.57 49.2383 273.53 49.2003C273.49 49.1622 273.468 49.1105 273.468 49.0566V43.7892Z" fill="#A6A6A6"/>
<path d="M280.673 47.929C280.674 47.7529 280.628 47.5795 280.541 47.4243C280.454 47.269 280.328 47.1368 280.174 47.0395C279.951 46.8984 279.702 46.7986 279.441 46.7453H279.397H277.929V49.0708C277.92 49.1191 277.893 49.1627 277.854 49.1941C277.814 49.2255 277.764 49.2427 277.713 49.2427C277.661 49.2427 277.612 49.2255 277.572 49.1941C277.532 49.1627 277.506 49.1191 277.496 49.0708V43.5933C277.499 43.5437 277.519 43.4965 277.554 43.4595C277.589 43.4226 277.636 43.3981 277.687 43.3901H279.448C279.846 43.3941 280.232 43.527 280.541 43.767C280.85 44.0071 281.065 44.3401 281.15 44.7118C281.235 45.0834 281.186 45.4716 281.01 45.813C280.834 46.1544 280.542 46.4287 280.182 46.5912C280.209 46.6093 280.238 46.6235 280.27 46.6332C280.518 46.7609 280.726 46.9497 280.872 47.1801C281.017 47.4105 281.096 47.6739 281.099 47.9431C281.086 48.1787 281.111 48.4149 281.172 48.6435C281.188 48.6966 281.219 48.7449 281.26 48.7836C281.31 48.7781 281.361 48.7881 281.404 48.812C281.448 48.836 281.482 48.8727 281.502 48.9167C281.516 48.9706 281.51 49.0274 281.484 49.0772C281.459 49.1271 281.416 49.167 281.363 49.1899H281.238C281.153 49.182 281.071 49.1525 281.001 49.1045C280.932 49.0565 280.877 48.9917 280.842 48.9167C280.699 48.6064 280.641 48.2666 280.673 47.929ZM279.441 43.7894H277.922V46.325H279.477C279.83 46.3204 280.165 46.1823 280.411 45.9413C280.657 45.7003 280.792 45.3759 280.787 45.0397C280.782 44.7035 280.638 44.3828 280.385 44.1483C280.133 43.9139 279.793 43.7847 279.441 43.7894Z" fill="#A6A6A6"/>
<path d="M286.455 47.7396H283.645L283.102 49.1405C283.087 49.1793 283.06 49.2128 283.024 49.2366C282.989 49.2603 282.947 49.2733 282.904 49.2736H282.823C282.77 49.2518 282.727 49.2114 282.704 49.1606C282.681 49.1098 282.679 49.0525 282.698 49.0004L284.833 43.5509C284.853 43.5129 284.883 43.4808 284.921 43.4585C284.958 43.4362 285.002 43.4245 285.046 43.4248C285.091 43.4227 285.135 43.4336 285.173 43.4562C285.211 43.4787 285.241 43.5117 285.259 43.5509L287.394 49.0004C287.415 49.0508 287.415 49.1068 287.394 49.1573C287.374 49.2079 287.335 49.2493 287.284 49.2736H287.203C287.159 49.2728 287.116 49.2598 287.08 49.2361C287.043 49.2125 287.015 49.1793 286.998 49.1405L286.455 47.7396ZM283.806 47.3263H286.301L285.053 44.1673L283.806 47.3263Z" fill="#A6A6A6"/>
<path d="M291.349 43.2917C292.069 43.2921 292.768 43.5213 293.337 43.9432C293.36 43.9596 293.38 43.9805 293.395 44.0045C293.409 44.0285 293.419 44.0551 293.422 44.0827C293.426 44.1103 293.423 44.1382 293.415 44.1648C293.406 44.1914 293.392 44.2161 293.374 44.2374C293.357 44.2592 293.336 44.2777 293.312 44.2916C293.288 44.3056 293.261 44.3148 293.233 44.3187C293.205 44.3226 293.176 44.3212 293.149 44.3144C293.121 44.3077 293.095 44.2958 293.073 44.2794C292.583 43.9071 291.975 43.7046 291.349 43.705C290.635 43.705 289.95 43.9759 289.445 44.4579C288.94 44.94 288.656 45.5939 288.656 46.2757C288.656 46.9574 288.94 47.6113 289.445 48.0934C289.95 48.5755 290.635 48.8463 291.349 48.8463C291.971 48.8553 292.576 48.6544 293.058 48.2789C293.081 48.2607 293.108 48.2474 293.136 48.2399C293.165 48.2325 293.195 48.231 293.224 48.2357C293.253 48.2403 293.281 48.251 293.306 48.2669C293.33 48.2829 293.351 48.3037 293.366 48.328C293.388 48.3464 293.406 48.369 293.418 48.3944C293.43 48.4197 293.436 48.4472 293.436 48.4751C293.436 48.5029 293.43 48.5304 293.418 48.5558C293.406 48.5811 293.388 48.6038 293.366 48.6222C292.795 49.0372 292.096 49.2611 291.378 49.2596C290.968 49.2596 290.561 49.1824 290.182 49.0324C289.803 48.8825 289.458 48.6627 289.168 48.3856C288.878 48.1085 288.647 47.7796 288.49 47.4176C288.333 47.0555 288.252 46.6675 288.252 46.2757C288.252 45.8838 288.333 45.4958 288.49 45.1338C288.647 44.7717 288.878 44.4428 289.168 44.1657C289.458 43.8886 289.803 43.6688 290.182 43.5189C290.561 43.3689 290.968 43.2917 291.378 43.2917H291.349Z" fill="#A6A6A6"/>
<path d="M296.815 43.7892H294.959C294.902 43.7874 294.848 43.7645 294.808 43.7253C294.768 43.6861 294.746 43.6336 294.746 43.5791C294.748 43.5258 294.771 43.4751 294.81 43.4374C294.85 43.3997 294.903 43.3777 294.959 43.376H299.097C299.153 43.3777 299.206 43.3997 299.245 43.4374C299.285 43.4751 299.308 43.5258 299.31 43.5791C299.311 43.6064 299.306 43.6335 299.296 43.659C299.285 43.6845 299.27 43.7077 299.25 43.7273C299.23 43.7469 299.206 43.7625 299.18 43.7731C299.154 43.7838 299.126 43.7893 299.097 43.7892H297.241V49.0566C297.241 49.1105 297.218 49.1622 297.178 49.2003C297.138 49.2383 297.084 49.2597 297.028 49.2597C296.972 49.2597 296.917 49.2383 296.877 49.2003C296.838 49.1622 296.815 49.1105 296.815 49.0566V43.7892Z" fill="#A6A6A6"/>
<path d="M166.207 221.213H311.562L314.585 164.281H163.184L166.207 221.213Z" fill="#EBEBEB"/>
<path d="M304.673 190.344H243.9L242.762 170.577H306.001L304.673 190.344ZM244.597 189.643H303.983L305.216 171.278H243.54L244.597 189.643Z" fill="#DBDBDB"/>
<path d="M303.55 213.081H246.284L245.352 195.24H304.717L303.55 213.081ZM246.981 212.38H302.86L303.939 195.941H246.123L246.981 212.38Z" fill="#DBDBDB"/>
<path d="M280.138 182.59H269.924L269.286 177.82H280.783L280.138 182.59ZM270.599 181.89H279.521L279.976 178.521H270.145L270.599 181.89Z" fill="#DBDBDB"/>
<path d="M280.138 206.546H269.924L269.286 201.776H280.783L280.138 206.546ZM270.599 205.845H279.521L279.976 202.476H270.145L270.599 205.845Z" fill="#DBDBDB"/>
<path d="M233.195 190.344H172.422L171.284 170.577H234.523L233.195 190.344ZM173.119 189.643H232.505L233.716 171.278H172.084L173.119 189.643Z" fill="#DBDBDB"/>
<path d="M232.072 213.081H174.806L173.875 195.24H233.239L232.072 213.081ZM175.503 212.38H231.383L232.461 195.941H174.645L175.503 212.38Z" fill="#DBDBDB"/>
<path d="M208.66 182.59H198.446L197.808 177.82H209.305L208.66 182.59ZM199.121 181.89H208.036L208.491 178.521H198.659L199.121 181.89Z" fill="#DBDBDB"/>
<path d="M208.66 206.546H198.446L197.808 201.776H209.305L208.66 206.546ZM199.121 205.845H208.036L208.491 202.476H198.659L199.121 205.845Z" fill="#DBDBDB"/>
<path d="M179.245 221.213L178.328 227.419L176.494 239.88H172.906V221.213H179.245Z" fill="#EBEBEB"/>
<path d="M179.245 221.213L178.328 227.419H172.906V221.213H179.245Z" fill="#DBDBDB"/>
<path d="M298.524 221.213L299.434 227.419L301.276 239.88H304.864V221.213H298.524Z" fill="#EBEBEB"/>
<path d="M298.524 221.213L299.434 227.419H304.864V221.213H298.524Z" fill="#DBDBDB"/>
<path d="M161.079 296C234.196 296 293.469 288.627 293.469 279.532C293.469 270.437 234.196 263.065 161.079 263.065C87.9615 263.065 28.6882 270.437 28.6882 279.532C28.6882 288.627 87.9615 296 161.079 296Z" fill="#EBEBEB"/>
<path d="M39.635 261.51C61.5248 261.51 79.27 257.452 79.27 252.446C79.27 247.44 61.5248 243.382 39.635 243.382C17.7452 243.382 0 247.44 0 252.446C0 257.452 17.7452 261.51 39.635 261.51Z" fill="#EBEBEB"/>
<path d="M2.15698 239.88L41.8874 239.712L81.6177 239.649L161.079 239.537L240.539 239.649L280.27 239.712L320 239.88L280.27 240.055L240.539 240.118L161.079 240.23L81.6177 240.118L41.8874 240.055L2.15698 239.88Z" fill="#263238"/>
<path d="M40.8017 118.576C40.8017 118.576 21.0722 115.942 25.6799 93.1987C25.6799 93.1987 47.7279 97.9268 40.8017 118.576Z" fill="#FFC727"/>
<path opacity="0.1" d="M40.8017 118.576C40.8017 118.576 21.0722 115.942 25.6799 93.1987C25.6799 93.1987 47.7279 97.9268 40.8017 118.576Z" fill="black"/>
<path d="M39.8039 113.827C39.4185 112.678 38.9703 111.549 38.4612 110.444C38.4612 110.297 38.4612 110.15 38.4099 110.01C38.4099 109.694 38.3512 109.386 38.3292 109.071C38.2705 108.371 38.2265 107.712 38.1824 107.033C38.1017 105.674 38.0137 104.315 37.9917 102.956C37.9917 102.879 37.8669 102.886 37.8669 102.956C37.8669 104.322 37.8669 105.681 37.8669 107.04C37.8669 107.74 37.9403 108.399 37.9843 109.078C37.9843 109.232 37.9843 109.379 37.9843 109.533C36.8754 107.268 35.5491 105.106 34.0223 103.075C33.379 102.17 32.6859 101.298 31.9459 100.463C31.1608 99.601 30.3317 98.7815 29.532 97.9339C29.4806 97.8779 29.3999 97.9339 29.4513 98.018C30.868 99.514 32.1401 101.129 33.2519 102.844C33.8535 103.706 34.4185 104.595 34.9615 105.499L34.778 105.436L34.0443 105.163L32.4302 104.581C31.3736 104.203 30.3171 103.839 29.2605 103.453C29.1945 103.453 29.1505 103.538 29.2165 103.559C30.2657 103.958 31.3002 104.378 32.3421 104.805L33.8682 105.436L34.6386 105.737C34.8039 105.816 34.9789 105.875 35.1596 105.912C35.5558 106.612 35.952 107.278 36.3188 107.978C37.2338 109.74 38.0375 111.553 38.7254 113.407C38.7767 113.533 38.8208 113.666 38.8721 113.799C38.351 113.513 37.8091 113.262 37.2506 113.05L35.2109 112.167C33.8242 111.558 32.4522 110.941 31.1241 110.227C31.1105 110.219 31.0944 110.217 31.0792 110.221C31.0641 110.225 31.0512 110.235 31.0434 110.248C31.0357 110.261 31.0336 110.276 31.0377 110.291C31.0419 110.305 31.0518 110.317 31.0655 110.325C32.4228 111.025 33.7508 111.789 35.1082 112.489C35.7905 112.839 36.4729 113.19 37.1699 113.505C37.7435 113.83 38.3676 114.067 39.0189 114.205C39.6809 115.929 40.1171 117.724 40.3175 119.55C40.5376 122.12 40.5156 124.712 40.5817 127.29H40.6477C40.8458 124.95 40.9559 122.59 40.9705 120.243C40.9417 118.059 40.5479 115.893 39.8039 113.827Z" fill="#263238"/>
<path d="M36.7664 100.456C36.5759 101.785 36.5096 103.128 36.5683 104.469C36.5683 104.504 36.627 104.504 36.627 104.469C36.7077 103.138 36.7224 101.807 36.8838 100.484C36.8911 100.414 36.7737 100.386 36.7664 100.456Z" fill="#263238"/>
<path d="M31.1241 101.597C30.242 101.274 29.3923 100.875 28.5854 100.406C28.5194 100.364 28.4607 100.469 28.5268 100.504C29.3172 101.014 30.1827 101.408 31.0947 101.674C31.1388 101.688 31.2121 101.618 31.1241 101.597Z" fill="#263238"/>
<path d="M41.4327 154.677C41.4327 152.576 41.374 150.517 41.352 148.436C41.308 141.523 41.2493 134.609 41.1172 127.696C41.0145 122.205 40.88 116.718 40.7137 111.236C40.7132 111.221 40.7089 111.207 40.7012 111.195C40.6935 111.183 40.6826 111.173 40.6697 111.165C40.6697 109.667 40.6697 108.168 40.6697 106.669C40.6697 106.627 40.6256 106.613 40.5743 106.613C40.5229 106.613 40.4789 106.613 40.4862 106.669C40.4862 108.172 40.4862 109.674 40.4862 111.172C40.4862 111.172 40.4349 111.207 40.4349 111.236C40.1487 121.042 39.8919 130.771 39.8259 140.542C39.8259 142.532 39.8259 144.514 39.8259 146.503C39.7525 152.868 39.7256 159.237 39.7452 165.611C39.7452 166.62 39.7452 167.636 39.7452 168.651C39.7452 174.479 39.8112 180.307 39.8112 186.163C39.8112 186.471 40.1781 186.632 40.5449 186.646C40.9118 186.66 41.4621 186.492 41.4621 186.135C41.4621 179.711 41.5061 173.281 41.5061 166.858C41.4841 162.782 41.4841 158.726 41.4327 154.677Z" fill="#263238"/>
<path d="M33.1931 148.352C33.1931 148.352 23.6989 141.642 14.6963 146.167C5.69366 150.692 4.27026 168.189 4.27026 168.189C4.27026 168.189 17.477 169.996 25.8267 162.424C33.8534 155.14 33.1931 148.352 33.1931 148.352Z" fill="#FFC727"/>
<path d="M35.7757 148.765C34.0326 148.102 32.1445 147.861 30.2802 148.065C29.8973 148 29.5098 147.962 29.121 147.953L27.7783 147.855L25.0122 147.673C23.1412 147.54 21.2629 147.427 19.392 147.245C19.379 147.25 19.3678 147.258 19.3599 147.268C19.3519 147.279 19.3476 147.292 19.3476 147.305C19.3476 147.318 19.3519 147.331 19.3599 147.341C19.3678 147.352 19.379 147.36 19.392 147.364C21.2409 147.589 23.0605 147.841 24.9315 148.016C25.8853 148.107 26.8391 148.205 27.8003 148.268L28.49 148.331C28.2112 148.394 27.925 148.457 27.6462 148.534C26.1571 148.948 24.7164 149.507 23.3467 150.201C22.613 150.327 21.8792 150.53 21.1455 150.692C19.9716 150.958 18.805 151.245 17.6384 151.539C15.3346 152.113 13.0527 152.765 10.7635 153.402C10.6902 153.402 10.7269 153.528 10.7635 153.507C13.0454 152.975 15.3492 152.485 17.6384 151.966L20.9694 151.203L21.8426 151.007C19.2959 152.519 17.0195 154.411 15.0998 156.61C13.2523 158.781 11.6809 161.154 10.4187 163.678C10.4187 163.741 10.4774 163.804 10.5214 163.741C12.0839 161.161 13.9903 158.785 16.193 156.673C16.149 156.792 16.1123 156.919 16.0683 157.038L15.54 158.635C15.1878 159.706 14.8063 160.771 14.4981 161.843C14.4981 161.913 14.5935 161.934 14.6155 161.843C15.0191 160.806 15.4006 159.741 15.7821 158.726C15.9655 158.214 16.1563 157.71 16.3397 157.199C16.4425 156.933 16.5378 156.666 16.6259 156.4C16.6259 156.323 16.6919 156.239 16.7213 156.155C17.779 155.175 18.9014 154.26 20.0817 153.416C21.6488 152.322 23.3395 151.398 25.1222 150.664C25.1222 150.818 25.0635 150.979 25.0269 151.126C24.9315 151.539 24.8361 151.952 24.7481 152.366C24.5646 153.22 24.3885 154.082 24.2124 154.943C23.8529 156.694 23.6328 158.446 23.288 160.225C23.288 160.302 23.3907 160.33 23.4054 160.225C23.8309 158.46 24.3812 156.722 24.7921 154.957C24.9975 154.075 25.203 153.192 25.4011 152.31L25.6652 151.063C25.7092 150.832 25.7679 150.6 25.7973 150.362L26.3109 150.159C28.7981 149.277 31.5495 148.639 34.2056 149.13C35.4619 149.352 36.6412 149.867 37.6384 150.63C38.6356 151.392 39.4198 152.378 39.9212 153.5C40.0092 153.696 40.332 153.57 40.2807 153.367C39.7671 151.224 37.8668 149.606 35.7757 148.765Z" fill="#263238"/>
<path d="M21.2484 156.232C20.9843 157.381 20.7128 158.53 20.4487 159.678C20.1489 160.779 19.9282 161.897 19.7883 163.027C19.7883 163.076 19.847 163.076 19.8617 163.027C20.2111 161.922 20.4808 160.797 20.6688 159.657C20.9036 158.523 21.1384 157.388 21.3658 156.253C21.3805 156.19 21.2631 156.162 21.2484 156.232Z" fill="#263238"/>
<path d="M12.0696 159.153C10.859 159.734 9.69235 160.4 8.40102 160.883C8.3938 160.886 8.38721 160.89 8.38164 160.895C8.37607 160.9 8.37163 160.907 8.36856 160.913C8.36549 160.92 8.36387 160.928 8.36377 160.935C8.36368 160.943 8.36512 160.95 8.36801 160.957C8.3709 160.964 8.37518 160.97 8.38062 160.975C8.38606 160.981 8.39254 160.985 8.39969 160.988C8.40684 160.991 8.41453 160.992 8.42231 160.992C8.4301 160.992 8.43782 160.991 8.44505 160.988C9.70807 160.454 10.94 159.856 12.1356 159.195C12.1356 159.195 12.1356 159.139 12.0696 159.153Z" fill="#263238"/>
<path d="M35.3282 136.024C35.3282 136.024 23.7283 136.725 18.3282 129.433C12.9281 122.141 14.146 111.698 14.146 111.698C14.146 111.698 26.3329 113.099 31.1681 118.359C36.0032 123.619 35.3282 136.024 35.3282 136.024Z" fill="#FFC727"/>
<path d="M40.7501 146.951C40.3466 145.767 39.8476 144.598 39.3781 143.449C38.9085 142.3 38.4462 141.222 37.9106 140.129C36.8776 137.897 35.7191 135.72 34.4402 133.608C33.6184 132.263 32.738 130.953 31.8355 129.664C31.8355 129.468 31.7768 129.272 31.7475 129.076C31.6961 128.733 31.6448 128.375 31.5861 128.046C31.4687 127.346 31.3439 126.645 31.2192 125.945C30.9551 124.411 30.6249 122.891 30.3681 121.364C30.3681 121.294 30.236 121.294 30.2507 121.364C30.4782 122.877 30.6396 124.397 30.8597 125.91C30.9697 126.652 31.0725 127.395 31.1899 128.137L31.3219 128.943C29.5527 126.47 27.637 124.097 25.5843 121.833L24.7846 120.951C24.7846 120.866 24.7112 120.782 24.6745 120.698C24.5865 120.488 24.5058 120.278 24.4251 120.061C24.249 119.627 24.0876 119.185 23.9188 118.744C23.596 117.876 23.3025 117 23.053 116.11C23.053 116.04 22.921 116.075 22.943 116.11C23.1778 117.021 23.4199 117.925 23.6767 118.821C23.8161 119.255 23.9628 119.683 24.1242 120.11C24.1242 120.18 24.1756 120.25 24.2049 120.32C22.7375 118.779 21.1747 117.294 19.6119 115.823C19.5606 115.774 19.4799 115.823 19.5312 115.907C22.5286 118.901 25.2761 122.115 27.7488 125.517C27.4674 125.432 27.1807 125.365 26.8903 125.314C25.9952 125.146 25.1001 125.027 24.1976 124.915C22.3046 124.684 20.419 124.46 18.5407 124.173C18.46 124.173 18.4306 124.271 18.5407 124.285C20.3383 124.621 22.1139 124.985 23.9041 125.405C24.7479 125.587 25.5917 125.742 26.4354 125.903C27.1275 126.043 27.8089 126.228 28.4751 126.456C28.6586 126.715 28.8567 126.967 29.0401 127.227C29.8912 128.403 30.7056 129.615 31.5054 130.827L30.3241 130.61C29.429 130.442 28.5265 130.288 27.6314 130.147C25.8631 129.867 24.0876 129.573 22.3413 129.195C22.268 129.195 22.2386 129.293 22.3413 129.307C24.1169 129.706 25.8705 130.168 27.6314 130.617C28.4825 130.834 29.3409 131.03 30.1994 131.212L31.4833 131.478C31.6564 131.522 31.8332 131.55 32.0116 131.562C33.7065 134.182 35.2913 136.872 36.7661 139.61C37.4117 140.815 38.0354 142.034 38.637 143.253C39.2387 144.472 39.7889 145.795 40.3612 147.07C40.4419 147.336 40.8602 147.231 40.7501 146.951Z" fill="#263238"/>
<path d="M28.8935 121.504C28.6734 120.446 28.4386 119.403 28.1598 118.338C28.1598 118.268 28.0277 118.303 28.0424 118.338C28.2625 119.375 28.4753 120.439 28.6734 121.455C28.8352 122.499 29.0532 123.535 29.3264 124.558C29.2572 123.532 29.1125 122.511 28.8935 121.504Z" fill="#263238"/>
<path d="M22.1288 121.196C21.5932 120.937 21.0209 120.733 20.4633 120.495L19.5828 120.166L19.1353 119.998C18.9638 119.945 18.799 119.875 18.6437 119.788C18.5556 119.732 18.5043 119.872 18.5923 119.886C18.7644 119.931 18.9297 119.997 19.0839 120.082L19.5241 120.271L20.3752 120.628C20.9312 120.877 21.502 121.095 22.0848 121.28C22.1508 121.329 22.1948 121.224 22.1288 121.196Z" fill="#263238"/>
<path d="M47.1997 127.318C47.1997 127.318 54.2213 114.801 64.8968 112.86C75.5723 110.92 82.117 121.413 82.117 121.413C82.117 121.413 74.325 130.911 64.5079 132.571C54.6909 134.231 47.1997 127.318 47.1997 127.318Z" fill="#FFC727"/>
<path d="M72.0579 118.471C69.2751 118.111 66.4518 118.144 63.679 118.569L64.1559 118.324L66.5258 117.161C68.154 116.302 69.8266 115.521 71.537 114.822C71.6177 114.787 71.537 114.682 71.493 114.717C69.8201 115.459 68.0886 116.118 66.4157 116.818C65.572 117.182 64.7502 117.568 63.9358 117.981C63.4075 118.247 62.8279 118.499 62.3069 118.821C59.9611 119.271 57.6818 119.993 55.5201 120.972L56.8555 119.571C57.846 118.527 58.8292 117.435 59.9224 116.489C59.9811 116.44 59.9224 116.363 59.8343 116.412C58.7191 117.378 57.5378 118.275 56.4519 119.284C55.931 119.774 55.4248 120.278 54.9332 120.804C54.691 121.063 54.4416 121.329 54.1995 121.609C50.5317 123.484 47.3449 126.111 44.8684 129.303C42.392 132.494 40.6874 136.17 39.8774 140.066C39.8774 140.136 39.9728 140.171 39.9948 140.101C41.499 135.329 44.1928 130.976 47.8455 127.416C51.7821 123.6 56.7335 120.881 62.1675 119.55C65.391 118.766 68.7247 118.477 72.0433 118.695C72.0744 118.697 72.105 118.687 72.1284 118.667C72.1518 118.648 72.1661 118.62 72.168 118.59C72.17 118.561 72.1595 118.531 72.1388 118.509C72.1182 118.487 72.0891 118.473 72.0579 118.471Z" fill="#263238"/>
<path opacity="0.1" d="M82.1171 121.413C82.1171 121.413 74.3251 130.911 64.508 132.571C57.0315 133.832 50.8831 130.112 48.3664 128.277L47.8235 127.43C47.8235 127.43 52.8787 123.367 62.4463 121.021C72.0139 118.674 82.1171 121.413 82.1171 121.413Z" fill="black"/>
<path d="M65.8506 114.009C65.0332 114.465 64.2421 114.963 63.4808 115.501C62.7388 116.041 62.0488 116.644 61.419 117.301C61.4108 117.314 61.4075 117.328 61.4095 117.343C61.4116 117.358 61.4189 117.371 61.4302 117.381C61.4415 117.391 61.4561 117.397 61.4715 117.398C61.4869 117.398 61.5021 117.394 61.5144 117.385C62.2481 116.797 62.9305 116.208 63.6715 115.655C64.3852 115.095 65.1351 114.578 65.9167 114.107C65.9234 114.103 65.9292 114.098 65.9338 114.091C65.9384 114.085 65.9416 114.078 65.9433 114.07C65.945 114.063 65.9452 114.055 65.9437 114.048C65.9423 114.04 65.9393 114.033 65.935 114.027C65.9307 114.02 65.9251 114.015 65.9185 114.01C65.9119 114.006 65.9045 114.003 65.8966 114.001C65.8888 113.999 65.8807 113.999 65.8728 114.001C65.8649 114.002 65.8574 114.005 65.8506 114.009Z" fill="#263238"/>
<path d="M71.7128 116.124C71.3166 116.285 70.913 116.419 70.5168 116.58L69.3282 117.049C69.2475 117.049 69.2842 117.217 69.3723 117.182L70.5609 116.72C70.9644 116.566 71.3533 116.391 71.7495 116.236C71.8228 116.208 71.7862 116.096 71.7128 116.124Z" fill="#263238"/>
<path d="M45.7983 143.071C45.7983 143.071 47.6766 155.49 57.457 159.832C67.2373 164.175 79.1601 159.832 79.1601 159.832C79.1601 159.832 74.5011 132.97 45.7983 143.071Z" fill="#FFC727"/>
<path d="M72.4171 151.77C71.522 151.672 70.6195 151.525 69.7317 151.371L68.411 151.133L67.7287 151C67.4646 150.769 67.2078 150.53 66.9363 150.299C65.0787 148.746 63.0745 147.36 60.9492 146.16C59.7936 145.506 58.5979 144.919 57.3687 144.402H57.5521L60.7731 144.535C62.9156 144.633 65.0653 144.675 67.2078 144.808C67.2885 144.808 67.2811 144.703 67.2078 144.696C65.0507 144.556 62.9082 144.331 60.7585 144.156L57.6329 143.89L56.0187 143.757L55.6078 143.715C55.0502 143.512 54.4926 143.323 53.9203 143.155C51.2544 142.281 48.3868 142.131 45.6367 142.72C43.1788 143.323 40.7208 144.864 40.0825 147.336C40.0825 147.42 40.1999 147.484 40.2366 147.399C41.1537 145.298 43.5603 144.282 45.7321 143.855C47.1842 143.592 48.6723 143.564 50.1343 143.771C50.233 144.411 50.3976 145.04 50.6259 145.648C50.8974 146.524 51.1615 147.399 51.4403 148.268C51.998 150.012 52.6069 151.77 53.1499 153.486C53.1499 153.501 53.1561 153.515 53.1671 153.526C53.1781 153.536 53.193 153.542 53.2086 153.542C53.2242 153.542 53.2391 153.536 53.2501 153.526C53.2611 153.515 53.2673 153.501 53.2673 153.486C52.8124 151.742 52.4235 149.984 51.9833 148.233C51.7705 147.378 51.5431 146.524 51.323 145.669C51.1951 145.072 51.031 144.483 50.8314 143.904C51.6882 144.047 52.5358 144.236 53.37 144.472C54.8704 144.9 56.3408 145.42 57.7723 146.027C57.9117 146.909 58.1244 147.785 58.3372 148.66C58.6014 149.753 58.9022 150.839 59.2617 151.91C59.2659 151.921 59.2734 151.93 59.2832 151.937C59.293 151.943 59.3047 151.947 59.3167 151.947C59.3287 151.947 59.3404 151.943 59.3502 151.937C59.3601 151.93 59.3676 151.921 59.3717 151.91L59.3277 151.707C59.1076 150.692 58.8728 149.676 58.6454 148.66C58.4693 147.841 58.3005 147.021 58.1171 146.209C59.3353 146.725 60.5254 147.301 61.6829 147.932C61.6829 148.184 61.771 148.443 61.8077 148.674C61.881 149.095 61.9617 149.522 62.0424 149.949C62.2259 150.902 62.424 151.861 62.6661 152.807C63.1088 154.638 63.6699 156.442 64.3463 158.207C64.338 158.217 64.3334 158.23 64.3334 158.242C64.3334 158.255 64.338 158.267 64.3463 158.277L64.405 158.34C64.449 158.389 64.5151 158.34 64.5004 158.284C64.0528 156.442 63.5319 154.614 63.1063 152.772C62.9009 151.847 62.6881 150.923 62.49 149.97C62.3946 149.508 62.3066 149.045 62.2112 148.569L62.1452 148.156C63.4625 148.893 64.734 149.702 65.9531 150.579C68.0644 152.089 70.0178 153.789 71.7861 155.658C71.8522 155.735 71.9916 155.658 71.9255 155.546C71.1995 154.605 70.4232 153.7 69.5997 152.835C69.1081 152.331 68.5945 151.84 68.0735 151.364H68.235C68.6972 151.441 69.1521 151.504 69.6143 151.56C70.5168 151.679 71.4266 151.763 72.3364 151.861C72.4685 151.875 72.4978 151.77 72.4171 151.77Z" fill="#263238"/>
<path d="M65.5498 155.973C65.5498 155.868 65.5498 155.756 65.4911 155.651C65.4324 155.546 65.3957 155.385 65.3737 155.245C65.1756 154.411 65.0068 153.577 64.8454 152.737C64.8454 152.681 64.7427 152.695 64.7427 152.737C64.8023 153.849 65.05 154.944 65.4764 155.98C65.4764 156.015 65.5571 155.98 65.5498 155.98V155.973Z" fill="#263238"/>
<path d="M57.3614 155.77C57.3614 155.77 57.3614 155.714 57.3027 155.714C57.0239 154.614 56.7598 153.514 56.525 152.408C56.4002 151.826 56.2755 151.245 56.1581 150.664C56.0921 150.348 56.0334 150.033 55.9747 149.718C55.9491 149.44 55.8773 149.169 55.7619 148.913C55.7577 148.902 55.7502 148.893 55.7404 148.886C55.7306 148.879 55.7189 148.876 55.7069 148.876C55.6949 148.876 55.6832 148.879 55.6734 148.886C55.6635 148.893 55.656 148.902 55.6519 148.913C55.6441 149.477 55.7283 150.04 55.9013 150.58C56.0187 151.182 56.1434 151.791 56.2828 152.394C56.569 153.62 56.8845 154.838 57.2513 156.043C57.2558 156.055 57.2643 156.066 57.2754 156.074C57.2866 156.081 57.3 156.085 57.3137 156.085C57.3274 156.085 57.3408 156.081 57.352 156.074C57.3631 156.066 57.3716 156.055 57.3761 156.043L57.3614 155.77Z" fill="#263238"/>
<path d="M71.5661 148.177C69.7759 147.946 67.993 147.7 66.2027 147.476C66.1293 147.476 66.1 147.581 66.2027 147.588C67.9856 147.841 69.7759 148.051 71.5661 148.289C71.5661 148.303 71.6028 148.191 71.5661 148.177Z" fill="#263238"/>
<path d="M40.787 113.946C40.787 113.946 34.7999 88.8839 63.011 78.7344C63.011 78.7344 70.8324 111.733 40.787 113.946Z" fill="#FFC727"/>
<path d="M46.8768 99.7342L47.1776 99.5591L48.7771 98.7046L52.0495 96.9605C54.1992 95.8047 56.327 94.6139 58.4914 93.4582C58.5648 93.4582 58.4914 93.3251 58.4328 93.3601C56.2316 94.4879 54.0305 95.5455 51.8661 96.6453L48.6304 98.2773L47.3097 98.9777C48.2489 97.2757 49.254 95.6086 50.3619 93.9976C51.8294 91.8472 53.4509 89.7949 55.1311 87.8056C55.1486 87.7879 55.158 87.7644 55.1573 87.7401C55.1567 87.7158 55.1459 87.6927 55.1274 87.676C55.1089 87.6593 55.0842 87.6503 55.0588 87.6509C55.0333 87.6516 55.0092 87.6619 54.9917 87.6795C52.5144 89.9741 50.3254 92.5364 48.469 95.3144C48.469 95.2233 48.469 95.1323 48.469 95.0482C48.469 94.4248 48.5203 93.8014 48.5277 93.178C48.5277 91.9522 48.4836 90.7265 48.5277 89.5077C48.5277 89.4306 48.4103 89.4376 48.4029 89.5077C48.3516 90.7124 48.1975 91.9172 48.1241 93.122C48.1241 93.7174 48.0654 94.3198 48.0434 94.9221C48.0434 95.2443 48.0434 95.6226 48.0434 95.9728C47.4662 96.8554 46.9111 97.7496 46.3779 98.6555C45.4324 100.29 44.5896 101.976 43.8539 103.706C43.8539 103.082 43.7879 102.459 43.7512 101.836C43.6632 100.435 43.4944 99.0968 43.4284 97.7239C43.4284 97.7091 43.4222 97.6948 43.4112 97.6843C43.4002 97.6738 43.3853 97.6679 43.3697 97.6679C43.3541 97.6679 43.3392 97.6738 43.3282 97.6843C43.3172 97.6948 43.311 97.7091 43.311 97.7239C43.311 99.1248 43.311 100.47 43.311 101.843C43.311 102.543 43.355 103.243 43.399 103.902C43.399 104.154 43.399 104.413 43.4504 104.665C42.5534 106.906 41.842 109.211 41.3226 111.558C40.8333 114.062 40.4831 116.59 40.2734 119.13C40.2734 119.13 40.2734 119.13 40.2734 119.13C40.5578 116.845 41.0488 114.588 41.7409 112.384C42.0857 111.201 42.4746 110.024 42.8561 108.882C44.03 108.357 45.1526 107.698 46.2825 107.096L49.8263 105.247C52.1815 104.014 54.5294 102.76 56.958 101.674C57.024 101.674 56.958 101.541 56.892 101.576C54.434 102.634 51.9541 103.678 49.5549 104.805C48.3516 105.387 47.1703 106.003 45.9964 106.634C45.0205 107.159 44.008 107.684 43.0615 108.294C43.333 107.509 43.6192 106.732 43.9346 105.968C44.8004 103.842 45.7825 101.762 46.8768 99.7342Z" fill="#263238"/>
<path d="M44.4997 93.9974C44.4952 93.985 44.4868 93.9743 44.4756 93.9667C44.4644 93.9592 44.4511 93.9551 44.4374 93.9551C44.4237 93.9551 44.4103 93.9592 44.3991 93.9667C44.3879 93.9743 44.3795 93.985 44.375 93.9974C44.4777 95.3983 44.5291 96.8552 44.6905 98.2841C44.6905 98.3009 44.6975 98.3169 44.7098 98.3287C44.7222 98.3405 44.739 98.3472 44.7565 98.3472C44.774 98.3472 44.7908 98.3405 44.8032 98.3287C44.8156 98.3169 44.8226 98.3009 44.8226 98.2841C44.7712 96.8552 44.6098 95.4333 44.4997 93.9974Z" fill="#263238"/>
<path d="M58.022 98.7882C56.2611 99.4886 54.4782 100.112 52.7173 100.812C52.6733 100.812 52.7173 100.911 52.7173 100.889C54.5002 100.252 56.2538 99.5586 58.0294 98.9002C58.1321 98.8722 58.0954 98.7601 58.022 98.7882Z" fill="#263238"/>
<path d="M60.7073 87.2241C58.9802 87.9807 57.3041 88.8392 55.6888 89.7947C55.6771 89.8071 55.6699 89.8227 55.6683 89.8392C55.6667 89.8558 55.6707 89.8724 55.6798 89.8866C55.6889 89.9007 55.7025 89.9117 55.7187 89.9179C55.7348 89.9241 55.7527 89.9251 55.7695 89.9208C57.4057 89.0032 59.0712 88.1277 60.766 87.3222C60.8394 87.3292 60.7734 87.1961 60.7073 87.2241Z" fill="#263238"/>
<path d="M60.2745 168.154H19.5903V209.095H60.2745V168.154Z" fill="#455A64"/>
<path d="M18.8782 182.646H16.7944V252.775H18.8782V182.646Z" fill="#263238"/>
<path d="M62.8645 182.646H60.7808V252.775H62.8645V182.646Z" fill="#263238"/>
<path d="M41.9758 182.646H39.8921V252.775H41.9758V182.646Z" fill="#263238"/>
<path d="M61.8228 206.476H17.8369V212.142H61.8228V206.476Z" fill="#263238"/>
<path d="M223.906 229.87C223.906 229.87 223.906 260.039 223.906 260.06C223.906 265.824 223.855 270.882 223.554 273.494C223.558 273.501 223.56 273.508 223.56 273.515C223.56 273.523 223.558 273.53 223.554 273.536C223.554 274.156 223.404 274.768 223.114 275.323L223.077 275.358C221.287 276.527 173.009 278.11 171.307 277.62C169.605 277.13 170.918 272.465 172.774 270.973C174.631 269.481 192.804 260.991 192.804 260.991L193.105 230.837L223.906 229.87Z" fill="#AD6359"/>
<path d="M223.899 253.861V260.06C223.899 265.825 223.848 270.882 223.547 273.494C223.551 273.501 223.553 273.508 223.553 273.515C223.553 273.523 223.551 273.53 223.547 273.536C223.471 274.146 223.323 274.745 223.107 275.323L223.07 275.358C221.28 276.527 173.002 278.11 171.299 277.62C169.597 277.13 170.911 272.465 172.767 270.973C174.623 269.481 192.797 260.991 192.797 260.991L192.709 254.687L223.899 253.861Z" fill="#C7C7C7"/>
<path d="M171.3 277.62C173.002 278.11 221.28 276.534 223.077 275.358C223.767 274.923 223.936 268.192 223.899 260.06V259.801L192.739 260.501L192.775 261.005C192.775 261.005 174.579 269.502 172.745 270.994C170.911 272.486 169.59 277.151 171.3 277.62Z" fill="#263238"/>
<path d="M171.776 275.82C179.913 275.358 212.754 274.251 220.825 274.419C220.891 274.419 220.891 274.461 220.825 274.468C212.754 275.085 179.928 275.946 171.784 275.974C171.615 275.946 171.608 275.827 171.776 275.82Z" fill="#455A64"/>
<path d="M190.148 261.167C193.333 260.466 197.265 260.83 199.789 262.932C199.892 263.016 199.789 263.142 199.664 263.114C196.569 262.272 193.389 261.749 190.178 261.552C190.13 261.547 190.085 261.526 190.051 261.493C190.018 261.46 189.997 261.417 189.994 261.371C189.99 261.325 190.004 261.279 190.032 261.242C190.06 261.205 190.101 261.178 190.148 261.167Z" fill="#455A64"/>
<path d="M187.889 262.574C191.066 261.874 195.006 262.238 197.53 264.339C197.625 264.416 197.53 264.55 197.398 264.522C194.303 263.679 191.122 263.155 187.911 262.96C187.863 262.954 187.819 262.932 187.786 262.899C187.753 262.865 187.734 262.821 187.732 262.776C187.729 262.73 187.743 262.685 187.772 262.648C187.801 262.611 187.842 262.585 187.889 262.574Z" fill="#455A64"/>
<path d="M185.621 263.975C188.805 263.275 192.738 263.646 195.262 265.74C195.365 265.824 195.262 265.957 195.137 265.929C192.043 265.086 188.862 264.56 185.651 264.36C185.602 264.356 185.558 264.335 185.524 264.302C185.49 264.269 185.47 264.225 185.467 264.179C185.463 264.133 185.477 264.088 185.505 264.05C185.533 264.013 185.574 263.986 185.621 263.975Z" fill="#455A64"/>
<path d="M226.673 118.029L226.643 120.026L225.462 208.184L225.455 208.52L224.758 261.327L190.963 260.683L197.486 118.134L197.574 116.229L197.904 99.6917H226.445L226.673 118.029Z" fill="#455A64"/>
<path d="M192.379 255.304C197.654 255.255 196.136 255.199 201.411 255.213C203.994 255.213 220.964 255.276 223.371 255.682C223.422 255.682 223.422 255.78 223.371 255.787C220.95 256.137 203.986 255.787 201.404 255.745C196.128 255.64 197.647 255.612 192.372 255.451C192.355 255.445 192.342 255.435 192.332 255.421C192.322 255.407 192.318 255.391 192.318 255.375C192.319 255.358 192.326 255.342 192.336 255.33C192.347 255.317 192.362 255.308 192.379 255.304Z" fill="#263238"/>
<path d="M207.515 127.304C207.515 127.289 207.509 127.275 207.498 127.264C207.487 127.254 207.472 127.248 207.457 127.248C207.441 127.248 207.426 127.254 207.415 127.264C207.404 127.275 207.398 127.289 207.398 127.304C207.398 135.744 207.038 140.472 206.826 148.906C206.613 157.339 206.356 165.772 206.092 174.199C205.615 191.059 204.903 207.904 204.25 224.757C203.883 234.209 203.426 243.655 202.878 253.097C202.878 253.11 202.884 253.123 202.893 253.132C202.903 253.141 202.916 253.146 202.93 253.146C202.943 253.146 202.956 253.141 202.966 253.132C202.975 253.123 202.981 253.11 202.981 253.097C204.265 236.287 205.49 219.42 206.195 202.56C206.899 185.7 207.398 168.847 207.479 151.988C207.552 142.525 207.493 136.767 207.515 127.304Z" fill="#263238"/>
<path d="M226.665 118.029L225.462 208.184L202.812 99.6917H226.438L226.665 118.029Z" fill="#263238"/>
<path d="M261.81 228.239C261.81 228.239 266.065 258.127 266.065 258.148C266.917 263.863 267.533 268.886 267.621 271.512C267.621 271.512 267.621 271.512 267.621 271.554C267.707 272.166 267.646 272.789 267.445 273.375C267.444 273.389 267.444 273.403 267.445 273.417C265.831 274.818 218.213 282.593 216.459 282.327C214.706 282.061 215.351 277.27 216.944 275.554C218.536 273.838 235.382 263.086 235.382 263.086L231.42 233.17L261.81 228.239Z" fill="#AD6359"/>
<path d="M265.192 252.012C265.192 252.012 266.065 258.127 266.065 258.148C266.917 263.863 267.533 268.886 267.621 271.512C267.621 271.512 267.621 271.512 267.621 271.554C267.635 272.166 267.576 272.777 267.445 273.375C267.444 273.389 267.444 273.403 267.445 273.417C265.831 274.818 218.213 282.593 216.459 282.327C214.706 282.061 215.351 277.27 216.944 275.554C218.536 273.838 235.382 263.086 235.382 263.086L234.377 256.838L265.192 252.012Z" fill="#C7C7C7"/>
<path d="M216.43 282.327C218.191 282.593 265.801 274.811 267.415 273.417C268.039 272.892 267.254 266.21 266.065 258.147L266.021 257.895L235.249 262.588L235.352 263.086C235.352 263.086 218.521 273.844 216.914 275.561C215.307 277.277 214.64 282.054 216.43 282.327Z" fill="#263238"/>
<path d="M216.65 280.478C224.648 278.979 257.004 273.649 265.075 272.773C265.141 272.773 265.148 272.808 265.075 272.822C257.188 274.475 224.765 279.553 216.694 280.632C216.503 280.653 216.481 280.513 216.65 280.478Z" fill="#455A64"/>
<path d="M232.784 263.597C235.844 262.518 239.791 262.35 242.587 264.101C242.697 264.171 242.587 264.318 242.484 264.304C239.299 263.866 236.074 263.755 232.865 263.975C232.817 263.976 232.77 263.961 232.732 263.932C232.695 263.904 232.669 263.863 232.659 263.818C232.65 263.773 232.657 263.726 232.68 263.686C232.703 263.646 232.74 263.614 232.784 263.597Z" fill="#455A64"/>
<path d="M230.737 265.278C233.797 264.199 237.744 264.031 240.539 265.789C240.649 265.853 240.539 266 240.437 265.986C237.252 265.55 234.027 265.44 230.818 265.656C230.77 265.657 230.723 265.642 230.685 265.614C230.647 265.585 230.621 265.544 230.612 265.499C230.602 265.454 230.609 265.408 230.632 265.367C230.655 265.327 230.692 265.295 230.737 265.278Z" fill="#455A64"/>
<path d="M228.697 266.966C231.757 265.887 235.697 265.719 238.5 267.47C238.61 267.54 238.5 267.688 238.397 267.674C235.213 267.231 231.987 267.121 228.778 267.344C228.73 267.345 228.683 267.33 228.645 267.302C228.608 267.273 228.582 267.232 228.572 267.187C228.563 267.142 228.57 267.096 228.593 267.055C228.616 267.015 228.653 266.983 228.697 266.966Z" fill="#455A64"/>
<path d="M200.809 99.6641C200.934 100.224 202.929 109.064 204.999 116.657C206.503 122.205 208.051 127.08 208.939 127.584C209.944 128.151 214.845 130.225 216.488 130.876L223.994 199.401L234.142 262.848L267.32 257.944L243.709 119.088L239.864 99.6641H200.809Z" fill="#455A64"/>
<path d="M234.34 256.48C239.549 255.682 238.008 255.836 243.261 255.08C245.815 254.715 262.602 252.341 265.045 252.404C265.097 252.404 265.111 252.488 265.045 252.502C262.712 253.202 245.881 255.304 243.32 255.612C238.089 256.256 239.586 256.018 234.347 256.614C234.334 256.607 234.324 256.598 234.316 256.587C234.308 256.576 234.304 256.562 234.303 256.549C234.302 256.536 234.305 256.522 234.312 256.51C234.318 256.498 234.328 256.488 234.34 256.48Z" fill="#263238"/>
<path d="M253.526 237.533C252.697 233.134 251.875 228.736 251.024 224.337C249.327 215.539 247.615 206.744 245.888 197.951C242.425 180.351 239.001 162.737 235.616 145.109C233.723 135.163 233.767 136.094 232.117 126.099C232.117 126.036 231.985 126.043 231.999 126.099C233.584 134.981 232.836 133.033 234.332 141.929C235.829 150.825 237.399 159.531 239.05 168.308C242.366 185.952 245.844 203.569 249.359 221.178C250.337 226.118 251.337 231.052 252.36 235.978C253.387 241.008 254.561 246.009 255.647 251.024C255.647 251.136 255.859 251.129 255.837 251.024C255.074 246.534 254.385 242.023 253.526 237.533Z" fill="#263238"/>
<path d="M244.406 126.757C243.526 126.54 242.58 126.47 241.684 126.337C240.951 126.225 240.217 126.099 239.483 125.952C238.103 125.716 236.794 125.19 235.653 124.411C234.406 123.486 233.768 122.078 233.166 120.726C232.804 119.928 232.437 119.129 232.065 118.331L231.515 117.175C231.259 116.722 231.031 116.254 230.833 115.774C230.833 115.704 230.693 115.774 230.723 115.774C230.848 116.102 230.951 116.436 231.031 116.776C231.156 117.161 231.266 117.546 231.39 117.932C231.618 118.632 231.838 119.333 232.073 120.033C232.43 121.297 232.945 122.515 233.606 123.661C234.942 125.679 237.319 126.498 239.696 126.785C240.378 126.862 241.068 126.911 241.758 126.946C242.622 127.02 243.491 127.02 244.355 126.946C244.375 126.941 244.394 126.931 244.408 126.917C244.423 126.903 244.434 126.885 244.439 126.866C244.444 126.847 244.444 126.827 244.438 126.808C244.432 126.788 244.422 126.771 244.406 126.757Z" fill="#263238"/>
<path d="M206.334 126.372C209.833 127.585 213.214 129.09 216.437 130.869C216.464 130.881 216.486 130.903 216.496 130.93C216.506 130.957 216.505 130.986 216.492 131.012C216.48 131.039 216.457 131.059 216.428 131.069C216.4 131.078 216.369 131.077 216.342 131.065C212.937 129.664 209.467 128.333 206.151 126.764C206.105 126.736 206.071 126.693 206.055 126.644C206.039 126.594 206.043 126.54 206.065 126.493C206.087 126.445 206.127 126.407 206.176 126.385C206.225 126.362 206.282 126.358 206.334 126.372Z" fill="#263238"/>
<path d="M205.307 104.14C205.307 104.028 205.527 104 205.527 104.14C205.524 107.766 205.715 111.389 206.099 114.997C206.253 116.671 207.662 125.917 210.707 125.244C211.213 125.132 211.44 124.649 211.551 123.92C211.54 122.963 211.404 122.01 211.147 121.084C210.809 119.143 210.538 117.203 210.369 115.249C210.011 111.608 210.053 107.941 210.494 104.308C210.494 104.284 210.504 104.261 210.522 104.243C210.54 104.226 210.564 104.217 210.589 104.217C210.615 104.217 210.639 104.226 210.657 104.243C210.675 104.261 210.685 104.284 210.685 104.308C210.6 109.359 210.909 114.409 211.609 119.417C211.991 121.819 213.26 125.44 210.626 125.812C207.992 126.183 206.224 120.124 205.879 118.464C205.038 113.733 204.846 108.918 205.307 104.14Z" fill="#263238"/>
<path d="M210.626 125.455C210.894 126.081 211.122 126.721 211.309 127.374C211.505 127.878 211.602 128.412 211.595 128.95C211.591 128.972 211.58 128.992 211.563 129.008C211.547 129.024 211.526 129.034 211.503 129.039C211.48 129.043 211.457 129.041 211.435 129.033C211.414 129.025 211.395 129.01 211.382 128.992C211.055 128.52 210.807 128.003 210.648 127.458C210.414 126.869 210.172 126.274 209.959 125.679C209.928 125.594 209.933 125.501 209.974 125.42C210.014 125.34 210.087 125.278 210.175 125.248C210.264 125.218 210.361 125.223 210.446 125.262C210.53 125.301 210.595 125.37 210.626 125.455Z" fill="#263238"/>
<path d="M244.054 121.126C240.033 120.873 197.573 116.222 197.573 116.222L197.904 99.6848H200.839H239.894L243.739 119.108L244.054 121.126Z" fill="#263238"/>
<path d="M214.317 61.7068C209.46 76.2201 201.235 91.2027 198.857 94.1516C192.481 102.081 173.324 109.891 167.477 110.899C164.945 111.334 158.878 95.7486 160.448 93.6053C162.018 91.4619 185.827 82.7763 186.993 81.6206C187.8 80.8151 197.845 68.4591 204.602 61.0064C213.047 51.7394 215.593 57.9104 214.317 61.7068Z" fill="#AD6359"/>
<path d="M165.533 90.5791L174.939 108.791C174.939 108.791 194.932 100.518 199.694 94.6137C204.456 88.7089 213.084 68.6971 214.368 62.323C215.652 55.9489 213.437 51.396 204.493 60.712C195.549 70.0279 188.138 79.3089 186.539 80.8639C184.939 82.4189 165.533 90.5791 165.533 90.5791Z" fill="#EBEBEB"/>
<path d="M166.325 89.6545L177.594 108.525C177.594 108.525 195.204 100.49 199.694 95.216C204.184 89.9416 211.587 73.7473 213.906 65.0057C216.224 56.2641 214.867 50.0651 204.5 60.7609C194.132 71.4568 188.27 79.2248 186.157 80.9689C185.152 81.7254 166.325 89.6545 166.325 89.6545Z" fill="#37474F"/>
<path d="M171.072 91.3988C171.643 91.3988 172.107 90.9567 172.107 90.4112C172.107 89.8658 171.643 89.4236 171.072 89.4236C170.501 89.4236 170.038 89.8658 170.038 90.4112C170.038 90.9567 170.501 91.3988 171.072 91.3988Z" fill="#263238"/>
<path d="M175.951 89.2551C176.522 89.2551 176.986 88.8129 176.986 88.2674C176.986 87.722 176.522 87.2798 175.951 87.2798C175.38 87.2798 174.917 87.722 174.917 88.2674C174.917 88.8129 175.38 89.2551 175.951 89.2551Z" fill="#263238"/>
<path d="M213.906 64.9778C211.587 73.7194 204.192 89.8858 199.694 95.1882C197.772 97.4506 193.472 100.21 189.165 102.634L211.859 55.1855C215.373 54.275 215.483 59.038 213.906 64.9778Z" fill="#263238"/>
<path d="M246.27 114.184C246.153 114.31 195.395 114.457 194.91 113.96C194.257 113.259 205.725 60.7258 210.935 54.2747C212.042 52.8738 215.718 52.5026 218.844 52.8738C219.659 52.9616 220.465 53.1187 221.25 53.3431H221.339C221.972 53.5216 222.57 53.801 223.107 54.1696C231.794 60.7959 239.116 83.9597 240.826 90.9152C243.687 102.396 246.688 113.729 246.27 114.184Z" fill="#EBEBEB"/>
<path d="M222.96 53.5532C222.96 53.5532 218.829 75.057 218.11 80.6466C217.391 86.2362 218.448 115.76 218.448 115.76L250.32 118.009C250.32 118.009 243.43 98.466 243.35 97.2262C243.35 97.2262 237.627 73.8172 232.263 64.0389C229.921 59.9897 226.758 56.4254 222.96 53.5532Z" fill="#37474F"/>
<path d="M250.32 118.008L235.866 116.986L225.55 55.7175V55.7596L232.021 63.6746C232.095 63.8007 232.168 63.9268 232.234 64.0529C237.598 73.8592 243.32 97.2401 243.32 97.2401C243.431 98.4659 250.32 118.008 250.32 118.008Z" fill="#263238"/>
<path d="M210.626 54.0227C210.626 54.0227 207.244 75.7997 206.877 77.5998C206.51 79.4 201.389 114.913 201.389 114.913L193.413 115.151L197.573 98.9145C197.573 98.9145 206.826 58.6597 210.626 54.0227Z" fill="#37474F"/>
<path d="M215.285 65.9722L213.025 61.7695L210.105 64.8095L210.824 67.8354L213.7 68.1926L215.285 65.9722Z" fill="#263238"/>
<path d="M213.701 68.1929L215.08 99.1107L209.012 109.337L205.857 97.8289L210.825 67.8357L213.701 68.1929Z" fill="#263238"/>
<path d="M212.429 153.644L212.389 189.955L275.165 190.018L275.205 153.707L212.429 153.644Z" fill="#FFC727"/>
<path opacity="0.1" d="M212.426 153.648L212.407 170.746L275.183 170.809L275.202 153.711L212.426 153.648Z" fill="black"/>
<path d="M210.931 165.242L276.678 165.308L276.697 148.364L210.949 148.298L210.931 165.242Z" fill="#FFC727"/>
<path d="M229.989 138.658L229.974 148.317L234.736 148.324L234.743 142.826L252.903 142.847L252.895 148.345H257.657L257.664 138.679L229.989 138.658Z" fill="#263238"/>
<path d="M263.361 169.335L267.646 169.339L267.654 161.242L263.37 161.238L263.361 169.335Z" fill="#263238"/>
<path d="M219.947 169.301L224.232 169.306L224.241 161.208L219.956 161.204L219.947 169.301Z" fill="#263238"/>
<path d="M229.974 60.0119C244.135 72.2767 253.123 89.795 253.732 93.3322C255.199 101.885 257.055 116.874 256.74 123.452C256.623 125.889 237.275 122.933 237.311 120.328C237.436 112.174 236.299 94.2428 236.247 93.9276C235.903 91.7352 231.691 81.8799 227.443 71.191C223.195 60.5022 224.017 54.8636 229.974 60.0119Z" fill="#AD6359"/>
<path d="M235.272 145.879C235.836 146.124 236.465 146.199 237.075 146.092C237.685 145.986 238.246 145.704 238.683 145.284C239.236 146.14 240.084 146.785 241.083 147.105C242.866 147.596 244.45 145.137 244.45 145.137C245.219 145.911 246.213 146.448 247.304 146.678C249.058 146.979 251.032 144.717 251.032 144.717C252.147 145.052 253.352 144.998 254.429 144.563C256.256 143.743 257.804 138.742 258.185 135.863C258.567 132.984 256.813 124.474 256.652 122.821L237.311 120.341C237.311 120.341 231.765 132.795 231.823 136.241C231.875 139.162 233.144 144.871 235.272 145.879Z" fill="#AD6359"/>
<path d="M238.39 145.116C237.561 142.041 237.729 138.896 237.715 135.758C237.715 135.743 237.721 135.729 237.732 135.718C237.743 135.708 237.758 135.702 237.773 135.702C237.789 135.702 237.804 135.708 237.815 135.718C237.826 135.729 237.832 135.743 237.832 135.758C237.832 138.882 238.434 141.971 238.566 145.095C238.569 145.117 238.562 145.14 238.548 145.157C238.533 145.175 238.512 145.187 238.489 145.189C238.465 145.192 238.442 145.186 238.423 145.172C238.405 145.158 238.393 145.138 238.39 145.116Z" fill="#263238"/>
<path d="M244.208 145.046C244.09 144.33 244.07 143.602 244.149 142.882C244.149 142.118 244.238 141.348 244.304 140.584C244.431 139.053 244.595 137.526 244.795 136.003C244.795 135.933 244.913 135.933 244.905 136.003C244.788 137.53 244.692 139.057 244.634 140.584C244.634 141.355 244.59 142.118 244.575 142.882C244.607 143.606 244.558 144.332 244.428 145.046C244.42 145.067 244.405 145.086 244.385 145.099C244.366 145.112 244.342 145.119 244.318 145.119C244.294 145.119 244.271 145.112 244.251 145.099C244.232 145.086 244.217 145.067 244.208 145.046Z" fill="#263238"/>
<path d="M251.031 144.654C250.937 144.004 250.957 143.343 251.09 142.7C251.164 141.999 251.23 141.299 251.296 140.598C251.428 139.197 251.552 137.796 251.626 136.396C251.626 136.326 251.743 136.326 251.743 136.396C251.67 137.796 251.618 139.239 251.538 140.661L251.406 142.763C251.421 143.403 251.319 144.04 251.105 144.647C251.101 144.653 251.097 144.658 251.09 144.662C251.084 144.666 251.077 144.669 251.07 144.669C251.063 144.67 251.055 144.669 251.049 144.666C251.042 144.664 251.036 144.659 251.031 144.654Z" fill="#263238"/>
<path d="M236.365 120.425L257.811 121.532C257.811 121.532 256.226 99.1178 254.524 92.8908C252.822 86.6638 238.294 65.9095 229.717 58.3866C221.647 51.3051 221.647 57.1959 224.706 65.4962C227.766 73.7965 235.338 93.8574 235.594 95.3213C235.851 96.7853 236.365 120.425 236.365 120.425Z" fill="#37474F"/>
<path d="M237.326 116.292C238.148 116.222 238.977 116.292 239.798 116.292C240.62 116.292 241.442 116.327 242.264 116.362C243.848 116.425 245.433 116.516 247.018 116.615L251.765 116.916C253.401 117.021 255.074 117.049 256.696 117.28C256.707 117.284 256.717 117.291 256.723 117.301C256.73 117.31 256.734 117.321 256.734 117.333C256.734 117.344 256.73 117.355 256.723 117.365C256.717 117.374 256.707 117.381 256.696 117.385C255.06 117.448 253.394 117.308 251.758 117.252L246.915 117.063C245.301 116.993 243.687 116.916 242.073 116.818C241.28 116.776 240.488 116.72 239.703 116.636C238.918 116.552 238.096 116.545 237.318 116.397C237.245 116.383 237.267 116.299 237.326 116.292Z" fill="#263238"/>
<path d="M213.789 61.2092C214.625 61.1742 220.179 57.0065 221.859 53.7984C221.977 53.5743 221.544 51.2908 221.162 48.496C220.935 46.801 220.722 44.9027 220.663 43.1586C220.663 42.8014 219.401 43.5018 219.401 43.5018L217.054 44.1182L209.306 46.1776C210.036 48.3372 210.484 50.5745 210.641 52.8388C210.649 53.0734 210.632 53.3081 210.59 53.5393C210.593 53.5789 210.593 53.6187 210.59 53.6584C210.421 55.0382 212.439 61.2582 213.789 61.2092Z" fill="#AD6359"/>
<path d="M210.619 53.5532C210.622 53.5928 210.622 53.6326 210.619 53.6723C211.012 53.7078 211.407 53.7078 211.8 53.6723C219.504 53.266 220.142 43.866 220.142 43.866L217.098 44.0901L209.35 46.1494C210.079 48.3091 210.528 50.5464 210.685 52.8107C210.692 53.0598 210.67 53.3088 210.619 53.5532Z" fill="#263238"/>
<path d="M220.377 28.3792C222.226 32.0285 221.918 43.4178 219.46 46.3107C215.909 50.5134 209.188 51.8512 205.226 47.5715C201.389 43.4318 202.071 28.5963 204.896 25.8576C209.056 21.879 217.648 22.9857 220.377 28.3792Z" fill="#AD6359"/>
<path d="M210.149 36.6863C210.149 36.6863 210.208 36.6863 210.208 36.7563C210.164 37.5198 210.252 38.4094 210.942 38.6756C210.942 38.6756 210.942 38.7246 210.942 38.7176C210.083 38.5845 209.981 37.4077 210.149 36.6863Z" fill="#263238"/>
<path d="M210.883 35.9021C212.174 35.832 212.226 38.3116 211.022 38.3747C209.819 38.4377 209.797 35.9581 210.883 35.9021Z" fill="#263238"/>
<path d="M205.498 36.8965C205.498 36.8965 205.439 36.9315 205.439 36.9665C205.476 37.73 205.388 38.6196 204.661 38.8858V38.9278C205.556 38.7877 205.666 37.5969 205.498 36.8965Z" fill="#263238"/>
<path d="M204.764 36.0981C203.473 36.0281 203.414 38.5077 204.617 38.5707C205.82 38.6338 205.835 36.1962 204.764 36.0981Z" fill="#263238"/>
<path d="M211.888 34.7534C211.529 34.6693 211.213 34.5432 210.876 34.4312C210.501 34.3676 210.16 34.185 209.907 33.9128C209.844 33.8145 209.818 33.6986 209.833 33.5842C209.847 33.4698 209.902 33.3634 209.988 33.2824C210.18 33.142 210.407 33.053 210.647 33.0247C210.887 32.9964 211.131 33.0297 211.353 33.1213C211.833 33.2425 212.248 33.5296 212.519 33.9268C212.575 34.0207 212.602 34.128 212.596 34.236C212.59 34.3439 212.551 34.4478 212.484 34.5352C212.417 34.6226 212.326 34.6896 212.22 34.7284C212.114 34.7671 211.999 34.7758 211.888 34.7534Z" fill="#263238"/>
<path d="M203.737 34.8726C204.084 34.7997 204.427 34.7085 204.764 34.5994C205.138 34.5496 205.486 34.3849 205.754 34.1301C205.823 34.0345 205.855 33.9197 205.847 33.8042C205.839 33.6887 205.791 33.579 205.71 33.4927C205.526 33.3425 205.303 33.2424 205.064 33.2029C204.825 33.1635 204.579 33.1862 204.353 33.2686C203.868 33.3665 203.439 33.6338 203.15 34.0181C203.089 34.1091 203.057 34.2149 203.058 34.3228C203.058 34.4308 203.092 34.5362 203.154 34.6264C203.216 34.7167 203.304 34.7879 203.407 34.8316C203.51 34.8753 203.625 34.8895 203.737 34.8726Z" fill="#263238"/>
<path d="M207.706 42.4584C208.05 42.8754 208.503 43.199 209.019 43.397C209.303 43.4983 209.614 43.513 209.907 43.439C210.553 43.2639 210.553 42.7386 210.428 42.2202C210.356 41.9766 210.255 41.7416 210.127 41.5198C209.445 42.0702 208.597 42.399 207.706 42.4584Z" fill="#263238"/>
<path d="M209.02 43.397C209.304 43.4983 209.614 43.5129 209.907 43.439C210.553 43.2639 210.553 42.7385 210.428 42.2202C210.09 42.2392 209.768 42.3651 209.513 42.5782C209.258 42.7913 209.084 43.0793 209.02 43.397Z" fill="#FF9ABB"/>
<path d="M203.252 29.6681C203.67 28.6875 204.162 27.6998 204.771 27.4897C205.38 27.2796 205.813 28.7085 207.214 28.7715C209.1 28.8626 209.98 27.1955 212.614 26.9714C216.393 26.6491 218.117 29.6401 218.315 34.7674C218.484 39.3413 221.397 39.7195 221.397 39.7195C221.397 39.7195 222.952 29.591 219.929 26.2989C216.907 23.0068 210.01 21.6549 205.475 24.898C203.795 26.1238 203.252 29.6681 203.252 29.6681Z" fill="#263238"/>
<path d="M218.939 37.9614C218.939 37.9614 221.06 34.0319 222.894 34.7044C224.728 35.3768 223.488 40.8403 221.581 41.8139C221.345 41.954 221.083 42.0472 220.809 42.0877C220.535 42.1283 220.255 42.1155 219.986 42.05C219.717 41.9846 219.465 41.8679 219.245 41.7069C219.025 41.5459 218.841 41.3441 218.705 41.1135L218.939 37.9614Z" fill="#AD6359"/>
<path d="M222.498 36.2664C222.498 36.2664 222.542 36.3014 222.498 36.3154C221.17 37.0158 220.605 38.3747 220.297 39.7336C220.358 39.5879 220.453 39.4568 220.573 39.3496C220.694 39.2424 220.837 39.1616 220.994 39.1129C221.15 39.0642 221.316 39.0488 221.48 39.0677C221.643 39.0865 221.8 39.1393 221.94 39.2223C221.977 39.2223 221.94 39.2993 221.94 39.2993C221.683 39.2556 221.417 39.2894 221.18 39.3961C220.944 39.5027 220.748 39.677 220.619 39.8947C220.405 40.2586 220.233 40.6438 220.106 41.0434C220.062 41.1765 219.82 41.1415 219.849 40.9944C219.541 39.2573 220.597 36.6866 222.498 36.2664Z" fill="#263238"/>
<path d="M210.582 53.8197L213.348 60.3058L221.742 52.1106L224.134 54.7303C224.134 54.7303 215.931 67.7166 215.88 67.1492L213.077 61.5877L209.063 65.4682L209.364 55.7389L210.582 53.8197Z" fill="#EBEBEB"/>
<path d="M208.924 60.6559C209.034 59.0519 209.093 57.4269 209.276 55.8298C209.276 55.7738 209.379 55.7528 209.394 55.8298C209.731 57.3778 209.291 63.5348 209.298 64.9847C209.467 64.8166 213.018 61.5735 213.055 61.6225C213.664 62.5051 215.718 66.5257 215.858 66.9249C217.156 64.8586 222.124 57.3498 223.664 55.3956C223.674 55.3877 223.686 55.383 223.698 55.382C223.711 55.3811 223.723 55.3839 223.734 55.3901C223.744 55.3964 223.753 55.4057 223.757 55.4168C223.762 55.4278 223.763 55.44 223.76 55.4516C222.637 57.595 216.063 67.7164 215.96 67.7164C214.878 65.804 213.899 63.8402 213.026 61.8327C212.424 62.5331 208.836 66.2105 208.822 65.9723C208.759 64.1997 208.793 62.4252 208.924 60.6559Z" fill="#263238"/>
<path d="M115.809 60.5017C125.039 77.8939 134.416 119.732 135.289 125.328C135.883 129.132 114.936 132.571 114.936 129.937C114.936 126.561 110.71 87.0698 111.113 71.4638C111.333 62.8553 113.901 56.9084 115.809 60.5017Z" fill="#EB9481"/>
<path d="M114.855 128.27C114.518 130.561 115.317 138.497 116.888 144.381C117.621 147.253 120.762 155.273 123.117 154.888C125.472 154.502 124.775 152.086 124.775 152.086C124.775 152.086 126.624 155.28 128.95 154.684C131.276 154.089 130.08 150.349 130.08 150.349C130.08 150.349 132.222 153.508 134.482 152.751C136.742 151.995 134.885 148.429 134.885 148.429C134.885 148.429 136.712 151.406 138.312 150.026C140.242 148.366 136.235 143.253 135.56 140.038C135.406 139.338 133.535 125.034 133.535 125.034L114.855 128.27Z" fill="#EB9481"/>
<path d="M134.915 148.38C131.98 144.611 131.378 142.475 131.011 137.873C131.006 137.857 130.996 137.844 130.982 137.834C130.968 137.824 130.952 137.819 130.934 137.819C130.917 137.819 130.9 137.824 130.887 137.834C130.873 137.844 130.863 137.857 130.857 137.873C130.791 142.419 131.144 145.2 134.731 148.541C134.907 148.688 135.054 148.555 134.915 148.38Z" fill="#263238"/>
<path d="M130.138 150.551C127.445 146.384 126.77 144.072 126.007 139.274C126.007 139.204 125.875 139.211 125.883 139.274C126.213 144.044 126.616 146.811 129.896 150.642C130.043 150.824 130.263 150.74 130.138 150.551Z" fill="#263238"/>
<path d="M124.562 151.77C122.266 147.568 121.414 145.053 121.304 140.304C121.299 140.285 121.287 140.268 121.27 140.256C121.254 140.244 121.233 140.238 121.213 140.238C121.192 140.238 121.172 140.244 121.155 140.256C121.139 140.268 121.127 140.285 121.121 140.304C120.739 145.158 121.781 148.289 124.423 151.833C124.606 152.037 124.709 152.009 124.562 151.77Z" fill="#263238"/>
<path d="M135.157 124.334C135.157 124.334 138.532 129.237 139.515 131.738C140.498 134.238 140.608 144.724 138.231 144.878C135.164 145.074 133.829 139.015 133.609 135.968C133.609 135.968 126.506 136.424 124.584 132.27C122.662 128.116 135.157 124.334 135.157 124.334Z" fill="#EB9481"/>
<path d="M137.373 144.661C134.438 142.917 134.394 138.896 133.932 135.954C133.927 135.91 133.911 135.868 133.886 135.832C133.86 135.795 133.826 135.765 133.786 135.743C133.745 135.722 133.7 135.71 133.654 135.709C133.608 135.708 133.562 135.718 133.521 135.737C130.535 135.737 126.316 134.911 124.511 132.445C124.507 132.435 124.501 132.427 124.493 132.42C124.486 132.413 124.477 132.407 124.467 132.404C124.456 132.4 124.446 132.399 124.435 132.4C124.425 132.401 124.414 132.404 124.405 132.41C124.396 132.415 124.388 132.422 124.382 132.43C124.376 132.439 124.372 132.448 124.37 132.458C124.368 132.468 124.369 132.478 124.371 132.488C124.374 132.498 124.379 132.507 124.386 132.515C125.942 135.415 130.021 136.55 133.293 136.346C133.719 139.365 133.946 143.4 137.351 144.689C137.373 144.696 137.387 144.675 137.373 144.661Z" fill="#263238"/>
<path d="M137.299 123.157L113.505 126.659C113.505 126.659 109.712 84.4852 109.573 70.3291C109.433 56.173 114.76 52.7058 120.475 67.1841C126.191 81.6624 137.299 123.157 137.299 123.157Z" fill="#FFC727"/>
<path d="M113.388 123.108C123.124 121.007 133.682 120.229 135.516 119.97C135.604 119.97 135.612 120.089 135.516 120.096C133.712 120.264 121.737 122.415 113.388 123.248C113.322 123.255 113.314 123.122 113.388 123.108Z" fill="#263238"/>
<path d="M166.127 277.585C164.476 278.096 116.088 277.403 114.312 276.289C114.1 276.163 114.07 271.988 114.129 266.266L111.774 232.273L142.391 232.357L144.813 261.776C144.813 261.776 151.68 264.802 157.344 267.449C159.823 268.525 162.231 269.741 164.557 271.092C166.384 272.549 167.778 277.081 166.127 277.585Z" fill="#EB9481"/>
<path d="M166.127 277.585C164.476 278.096 116.088 277.403 114.312 276.289C114.099 276.163 114.07 271.988 114.129 266.266C126.081 268.808 157.953 272.927 158.885 270.538C159.259 269.579 158.496 268.493 157.359 267.491C159.837 268.567 162.246 269.783 164.571 271.134C166.383 272.549 167.777 277.081 166.127 277.585Z" fill="#263238"/>
<path d="M98.8457 108.553C98.8457 108.553 107.518 196.403 107.709 197.468C107.709 197.608 107.804 199.233 107.885 201.874C108.369 216.366 109.558 261.559 109.558 261.559H145.935C145.935 261.559 143.565 208.03 142.201 195.548C140.462 179.613 129.772 108.553 129.772 108.553H98.8457Z" fill="#37474F"/>
<path d="M112.045 200.437C110.925 182.198 109.24 163.986 106.99 145.802C105.713 135.576 104.172 125.384 102.646 115.186C102.646 115.095 102.485 115.102 102.499 115.186C105.317 133.334 107.305 151.609 109.022 169.898C110.739 188.187 111.957 206.433 112.691 224.743C113.138 235.11 113.476 245.49 113.821 255.864C113.83 255.909 113.855 255.949 113.891 255.978C113.928 256.007 113.975 256.023 114.022 256.023C114.07 256.023 114.116 256.007 114.153 255.978C114.19 255.949 114.215 255.909 114.224 255.864C113.74 237.4 113.182 218.908 112.045 200.437Z" fill="#263238"/>
<path d="M143.639 255.962C142.685 255.843 141.65 255.878 140.704 255.85C139.618 255.85 138.503 255.801 137.431 255.766C135.326 255.689 133.212 255.633 131.107 255.605C126.859 255.535 122.603 255.563 118.362 255.689L114.855 255.808C113.608 255.85 112.36 255.962 111.113 255.955C111.025 255.955 111.025 256.06 111.113 256.06C113.248 256.06 115.413 256.235 117.555 256.312C119.698 256.389 121.767 256.417 123.872 256.445C128.121 256.501 132.383 256.445 136.624 256.319C137.791 256.277 138.957 256.263 140.124 256.228L142.002 256.137C142.56 256.137 143.11 256.137 143.668 256.088C143.741 256.088 143.734 255.976 143.639 255.962Z" fill="#263238"/>
<path d="M125.127 108.553L108.509 222.978C108.274 214.447 108.039 206.56 107.885 201.874C107.804 199.233 107.738 197.608 107.709 197.468C107.503 196.403 98.8457 108.553 98.8457 108.553H125.127Z" fill="#263238"/>
<path d="M105.185 283.679C103.453 283.546 59.0638 265.138 57.8752 263.457C57.7285 263.268 59.3426 259.401 61.7419 254.141L71.5295 221.22L99.8507 232.07L91.8606 261.3C91.8606 261.3 96.9966 266.616 101.149 271.106C103.004 273.012 104.739 275.021 106.344 277.123C107.452 279.119 106.909 283.819 105.185 283.679Z" fill="#EB9481"/>
<path d="M105.185 283.679C103.453 283.546 59.0638 265.138 57.8752 263.457C57.7285 263.268 59.3426 259.401 61.7419 254.141C71.757 260.879 99.5132 276.373 101.362 274.51C102.096 273.767 101.824 272.479 101.179 271.134C103.034 273.039 104.768 275.049 106.373 277.151C107.452 279.119 106.909 283.819 105.185 283.679Z" fill="#263238"/>
<path d="M58.5576 250.751L94.0472 261.257C94.0472 261.257 111.377 203.225 112.705 189.595C114.019 176.083 115.288 148.478 115.853 128.452C115.853 128.452 121.781 125.104 123.285 123.276C124.79 121.448 126.14 114.871 129.104 108.567H85.6829C75.3082 127.808 83.1149 136.367 83.1149 140.563C83.1149 160.82 79.9086 187.71 78.8887 191.696C76.761 200.003 58.5576 250.751 58.5576 250.751Z" fill="#37474F"/>
<path d="M93.9663 253.847C93.0785 253.496 92.0733 253.279 91.1488 253.006C90.0996 252.705 89.0431 252.425 88.0012 252.117C85.9908 251.521 83.9658 250.954 81.9408 250.407C77.8564 249.296 73.7428 248.273 69.5998 247.339L66.1807 246.59C64.9701 246.324 63.7301 246.121 62.5121 245.812C62.4167 245.812 62.3947 245.89 62.5121 245.918C64.5812 246.436 66.6209 247.143 68.668 247.746C70.715 248.348 72.7107 248.887 74.7357 249.441C78.8225 250.541 82.9459 251.542 87.0841 252.46C88.2286 252.705 89.3586 252.978 90.4958 253.237L92.3227 253.623C92.8657 253.742 93.394 253.91 93.9443 253.987C93.9637 253.99 93.9835 253.985 93.9994 253.974C94.0152 253.962 94.0257 253.946 94.0286 253.927C94.0315 253.909 94.0266 253.89 94.0149 253.875C94.0032 253.859 93.9857 253.849 93.9663 253.847Z" fill="#263238"/>
<path d="M124.298 122.821C122.226 123.73 120.259 124.843 118.428 126.141C116.484 127.416 114.694 128.88 112.823 130.246C112.749 130.302 112.823 130.414 112.896 130.365C114.87 129.16 116.939 128.102 118.89 126.862C120.85 125.727 122.697 124.424 124.408 122.968C124.459 122.912 124.393 122.786 124.298 122.821Z" fill="#263238"/>
<path d="M124.57 111.144C124.32 112.433 123.99 113.715 123.696 114.997C123.403 116.279 123.22 117.427 122.889 118.618C122.616 119.77 122.003 120.823 121.121 121.651C120.63 122.092 120.079 122.478 119.551 122.884C119.272 123.101 118.964 123.304 118.671 123.528C118.707 123.353 118.737 123.185 118.766 123.003C118.861 122.52 118.949 122.029 119.03 121.539C119.221 120.453 119.404 119.361 119.58 118.275C119.925 116.132 120.241 113.967 120.71 111.845C120.715 111.826 120.712 111.807 120.702 111.79C120.691 111.774 120.675 111.762 120.655 111.757C120.636 111.753 120.615 111.756 120.598 111.765C120.581 111.775 120.568 111.791 120.564 111.81C120.006 113.911 119.39 116.013 118.905 118.114C118.663 119.151 117.812 124.278 117.775 124.642C117.739 125.006 117.702 125.392 117.687 125.77C117.64 126.154 117.64 126.542 117.687 126.926C117.687 127.017 117.834 127.003 117.871 126.926C118.035 126.57 118.151 126.196 118.216 125.812C118.311 125.448 118.399 125.076 118.465 124.705C118.465 124.572 118.509 124.432 118.531 124.292C119.059 123.984 119.551 123.591 120.05 123.241C120.549 122.891 121.121 122.541 121.627 122.106C122.56 121.355 123.233 120.351 123.557 119.228C123.883 118.017 124.097 116.782 124.195 115.536C124.364 114.079 124.489 112.615 124.702 111.165C124.724 111.144 124.584 111.074 124.57 111.144Z" fill="#263238"/>
<path d="M123.66 55.2904C122.963 63.5207 122.097 71.9821 120.087 80.0233C118.516 86.2853 114.951 91.1534 107.834 91.8048C101.23 92.4072 92.0956 91.1044 87.2531 86.3343C84.9933 84.1139 84.5017 81.3261 85.096 78.3562C85.9251 74.2305 92.6532 51.9002 94.7003 44.9238C95.9476 40.679 97.1802 36.3713 99.2052 32.3787C103.446 23.9733 108.01 24.6738 108.641 24.5687C109.235 24.3025 112.933 23.2799 117.687 25.4373C118.938 25.9947 120.052 26.7984 120.955 27.7955C121.857 28.7926 122.529 29.9606 122.926 31.223C125.45 38.7318 124.335 47.5855 123.66 55.2904Z" fill="#263238"/>
<path d="M107.071 25.5983C101.252 27.3214 99.1246 32.855 97.0702 37.7861C94.2087 44.6575 91.4647 51.578 89.0728 58.6175C87.9282 62.0006 86.8716 65.4118 85.8958 68.844C84.9787 72.1361 83.7827 75.6174 83.5333 79.0286C83.1224 84.6322 88.1116 87.9103 93.1889 89.3882C93.2395 89.404 93.2946 89.3999 93.342 89.377C93.3895 89.354 93.4255 89.3139 93.442 89.2656C93.4586 89.2173 93.4543 89.1647 93.4302 89.1194C93.4062 89.0741 93.3642 89.0398 93.3136 89.024C90.4375 88.0784 87.5393 86.9226 85.639 84.5201C83.1958 81.4661 84.0322 78.0059 84.8613 74.5597C86.2847 68.6899 88.0529 62.9112 89.9972 57.1956C91.9416 51.4799 94.1867 45.8203 96.4759 40.2097C98.677 34.8653 100.709 27.7207 107.056 25.6894C107.151 25.6894 107.129 25.5773 107.071 25.5983Z" fill="#263238"/>
<path d="M124.547 37.5199C124.122 33.1141 122.39 28.6453 117.863 26.7891C123.689 29.4368 124.261 35.986 124.305 41.3934C124.354 47.0951 124.185 52.7874 123.799 58.4704C123.432 63.9409 122.933 69.4394 122.045 74.8539C121.084 80.6956 119.184 86.0611 114.87 90.3968C114.86 90.4051 114.852 90.4151 114.847 90.4263C114.841 90.4375 114.838 90.4496 114.837 90.4619C114.836 90.4743 114.838 90.4866 114.843 90.4983C114.847 90.51 114.854 90.5207 114.862 90.5299C114.871 90.5391 114.881 90.5466 114.893 90.5519C114.905 90.5572 114.917 90.5603 114.93 90.561C114.943 90.5616 114.956 90.5598 114.969 90.5557C114.981 90.5516 114.992 90.5452 115.002 90.5369C119.132 87.0977 121.091 81.8724 122.097 76.8712C123.309 70.2318 124.062 63.5233 124.349 56.7893C124.731 50.4502 125.164 43.901 124.547 37.5199Z" fill="#263238"/>
<path d="M106.725 56.4112C107.004 57.1117 111.282 61.3844 114.745 60.8031C115.868 60.6069 115.038 54.6881 115.038 54.6881L115.082 54.2399L115.684 47.9358L107.518 44.2515L106.351 43.7751C106.351 43.7751 106.3 45.5123 106.271 47.6696C106.271 47.7747 106.271 47.8728 106.271 47.9778C106.263 48.0968 106.263 48.2161 106.271 48.3351C106.271 48.6573 106.271 48.9865 106.271 49.3157C106.271 49.6449 106.271 49.806 106.271 50.0652C106.271 50.3243 106.271 50.5905 106.271 50.8497C106.29 52.7112 106.442 54.5694 106.725 56.4112Z" fill="#EB9481"/>
<path d="M106.271 47.6696C107.151 49.3089 108.395 50.7457 109.915 51.8802C111.436 53.0148 113.196 53.8199 115.075 54.2399L115.677 47.9358L107.518 44.2515L106.351 43.7751C106.351 43.7751 106.3 45.5123 106.271 47.6696Z" fill="#263238"/>
<path d="M124.078 38.655C125.002 49.722 118.164 51.5012 115.662 51.6903C113.388 51.8584 105.632 52.1666 103.519 41.2396C101.406 30.3126 106.505 26.3901 111.678 25.7597C116.851 25.1293 123.161 27.5809 124.078 38.655Z" fill="#EB9481"/>
<path d="M122.126 36.3012C121.862 36.264 121.6 36.2125 121.341 36.1471C121.055 36.1306 120.781 36.0248 120.564 35.8459C120.508 35.7764 120.478 35.6915 120.478 35.6042C120.478 35.5169 120.508 35.4321 120.564 35.3626C120.694 35.2421 120.856 35.1566 121.033 35.1148C121.209 35.073 121.394 35.0763 121.569 35.1244C121.943 35.1693 122.284 35.3499 122.523 35.6287C122.575 35.694 122.605 35.7724 122.611 35.8542C122.617 35.9361 122.598 36.0177 122.556 36.0892C122.514 36.1607 122.451 36.2189 122.374 36.2565C122.298 36.2942 122.212 36.3097 122.126 36.3012Z" fill="#263238"/>
<path d="M114.408 36.4554C114.679 36.4203 114.921 36.3503 115.193 36.2943C115.466 36.2651 115.722 36.1548 115.926 35.9791C115.983 35.9101 116.014 35.825 116.014 35.7374C116.014 35.6498 115.983 35.5647 115.926 35.4958C115.794 35.3758 115.63 35.2918 115.452 35.2524C115.274 35.213 115.088 35.2196 114.914 35.2716C114.545 35.3281 114.21 35.5127 113.975 35.7899C113.921 35.8577 113.891 35.9391 113.887 36.0237C113.883 36.1083 113.906 36.192 113.953 36.264C114 36.3359 114.068 36.3926 114.149 36.4268C114.23 36.461 114.32 36.4709 114.408 36.4554Z" fill="#263238"/>
<path d="M116.22 39.2505C116.22 39.2505 116.161 39.2505 116.161 39.3135C116.212 40.07 116.161 40.9456 115.427 41.2187C115.427 41.2187 115.427 41.2678 115.427 41.2608C116.322 41.0997 116.396 39.9579 116.22 39.2505Z" fill="#263238"/>
<path d="M115.486 38.4797C114.209 38.4307 114.195 40.8683 115.376 40.9173C116.557 40.9663 116.557 38.5218 115.486 38.4797Z" fill="#263238"/>
<path d="M114.987 38.6059C114.76 38.746 114.539 38.9842 114.253 39.0122C113.967 39.0402 113.71 38.781 113.52 38.5359H113.476C113.476 38.9982 113.644 39.4815 114.209 39.5515C114.774 39.6216 115.038 39.2083 115.163 38.739C115.156 38.683 115.075 38.5499 114.987 38.6059Z" fill="#263238"/>
<path d="M120.622 39.082C120.622 39.082 120.681 39.082 120.681 39.1451C120.644 39.9016 120.732 40.7771 121.451 41.0363C121.451 41.0363 121.451 41.0853 121.451 41.0783C120.571 40.9522 120.461 39.7895 120.622 39.082Z" fill="#263238"/>
<path d="M121.341 38.2976C122.611 38.2276 122.677 40.6651 121.495 40.7352C120.314 40.8052 120.27 38.3607 121.341 38.2976Z" fill="#263238"/>
<path d="M121.877 38.4517C122.082 38.5708 122.288 38.8019 122.53 38.8159C122.772 38.8299 123.007 38.5568 123.183 38.2976H123.22C123.22 38.7599 123.095 39.2502 122.633 39.3483C122.17 39.4463 121.899 39.0471 121.752 38.5918C121.73 38.5288 121.796 38.3957 121.877 38.4517Z" fill="#263238"/>
<path d="M119.463 42.5003C119.463 42.5003 119.632 43.628 119.632 44.1604C119.632 44.2164 119.5 44.2374 119.309 44.2514C118.83 44.3379 118.336 44.2966 117.88 44.1323C117.425 43.9679 117.025 43.6868 116.726 43.3198C116.715 43.3087 116.71 43.2939 116.711 43.2788C116.711 43.2637 116.718 43.2495 116.73 43.2393C116.741 43.2291 116.757 43.2237 116.773 43.2243C116.789 43.225 116.803 43.2316 116.814 43.2428C117.526 43.7052 118.376 43.9339 119.235 43.8942C119.272 43.7471 118.876 41.968 118.964 41.961C119.398 41.9941 119.825 42.0837 120.233 42.2271C119.954 39.8666 119.279 37.5691 119.03 35.2226C119.03 35.2041 119.038 35.1862 119.051 35.1731C119.065 35.16 119.084 35.1526 119.103 35.1526C119.123 35.1526 119.141 35.16 119.155 35.1731C119.169 35.1862 119.177 35.2041 119.177 35.2226C119.981 37.6653 120.529 40.1782 120.813 42.7244C120.835 42.9626 119.683 42.5703 119.463 42.5003Z" fill="#263238"/>
<path d="M120.358 39.8176C120.182 38.0104 121.055 36.4554 122.302 36.3153C123.55 36.1752 124.716 37.5761 124.892 39.3833C125.068 41.1905 124.159 42.7454 122.948 42.8855C121.737 43.0256 120.534 41.6247 120.358 39.8176ZM120.82 39.7755C120.974 41.3375 121.906 42.5353 122.904 42.4513C123.902 42.3672 124.592 41.0153 124.437 39.4533C124.283 37.8913 123.344 36.6936 122.346 36.7776C121.349 36.8617 120.666 38.2135 120.82 39.7755Z" fill="#263238"/>
<path d="M111.737 40.5952C111.721 39.9965 111.889 39.4065 112.219 38.8976C112.55 38.3887 113.029 37.983 113.598 37.7304C114.167 37.4777 114.8 37.3891 115.421 37.4755C116.042 37.5618 116.623 37.8193 117.092 38.2164C117.562 38.6134 117.9 39.1327 118.064 39.7106C118.229 40.2884 118.214 40.8996 118.02 41.4691C117.826 42.0386 117.462 42.5417 116.973 42.9165C116.483 43.2913 115.89 43.5216 115.266 43.5791C114.384 43.6271 113.518 43.3403 112.857 42.7813C112.196 42.2224 111.793 41.4365 111.737 40.5952ZM112.199 40.5532C112.292 41.0568 112.537 41.5236 112.904 41.8965C113.271 42.2694 113.743 42.5323 114.264 42.6531C114.784 42.7739 115.33 42.7474 115.836 42.5768C116.341 42.4062 116.783 42.0989 117.108 41.6924C117.433 41.2859 117.627 40.7978 117.667 40.2877C117.706 39.7776 117.589 39.2676 117.33 38.82C117.071 38.3723 116.681 38.0064 116.207 37.7669C115.734 37.5274 115.198 37.4246 114.664 37.4712C113.91 37.5687 113.226 37.9479 112.764 38.5257C112.302 39.1034 112.099 39.8325 112.199 40.5532Z" fill="#263238"/>
<path d="M117.959 39.7334C119.617 39.033 120.446 39.4742 120.453 39.4812L120.703 39.11C120.666 39.11 119.683 38.4936 117.768 39.3342L117.959 39.7334Z" fill="#263238"/>
<path d="M111.92 40.287L111.964 39.8457C111.656 39.8457 104.539 39.2153 103.776 39.2433C103.013 39.2714 101.201 40.4411 101.003 40.5742L101.267 40.9384C102.021 40.3942 102.864 39.973 103.761 39.6916H103.849C104.407 39.6986 109.389 40.0699 111.92 40.287Z" fill="#263238"/>
<path d="M103.85 40.4482C105.104 40.3781 108.377 37.065 108.479 31.2653C108.479 31.2653 108.01 36.4696 107.606 37.2331C107.203 37.9966 109.433 35.3699 109.58 30.6979C111.126 31.7506 112.82 32.5878 114.613 33.1845C116.924 33.8009 118.34 33.7799 118.509 33.6188C118.678 33.4577 115.266 32.435 114.342 31.4264C114.342 31.4264 120.505 34.1511 123.337 34.3613C123.667 34.3613 124.071 27.9382 119.668 25.2064C115.266 22.4747 108.333 25.4305 106.462 27.1537C106.462 27.1537 104.26 27.4478 101.891 30.5508C99.5207 33.6538 102.5 40.5252 103.85 40.4482Z" fill="#263238"/>
<path d="M105.434 41.954C105.434 41.954 102.918 38.4518 101.267 39.3203C99.616 40.1889 101.48 45.2111 103.409 45.9116C103.65 46.0177 103.911 46.0762 104.177 46.0838C104.442 46.0914 104.706 46.0477 104.954 45.9555C105.201 45.8633 105.426 45.7244 105.616 45.5472C105.806 45.3699 105.956 45.1579 106.058 44.9239L105.434 41.954Z" fill="#EB9481"/>
<path d="M101.839 40.7493V40.7983C103.189 41.3376 103.893 42.5424 104.385 43.7892C104.308 43.6583 104.202 43.5451 104.074 43.4575C103.947 43.3698 103.801 43.3099 103.646 43.2819C103.492 43.2538 103.333 43.2584 103.18 43.2952C103.028 43.332 102.886 43.4002 102.764 43.495C102.764 43.495 102.764 43.5721 102.8 43.5651C103.039 43.4935 103.295 43.4948 103.534 43.5689C103.772 43.643 103.979 43.7861 104.128 43.9783C104.376 44.2991 104.588 44.6443 104.759 45.008C104.818 45.1271 105.038 45.064 104.994 44.9309C105.023 43.2499 103.695 40.9314 101.839 40.7493Z" fill="#263238"/>
<path d="M105.031 45.6595C105.032 45.8205 104.984 45.9783 104.891 46.1128C104.798 46.2474 104.666 46.3526 104.51 46.4152C104.355 46.4777 104.184 46.4948 104.018 46.4643C103.853 46.4337 103.7 46.3569 103.581 46.2435C103.461 46.1302 103.379 45.9854 103.346 45.8276C103.312 45.6698 103.328 45.5061 103.393 45.3572C103.457 45.2083 103.566 45.081 103.706 44.9914C103.846 44.9018 104.011 44.854 104.18 44.854C104.404 44.854 104.62 44.9386 104.779 45.0895C104.938 45.2404 105.029 45.4452 105.031 45.6595Z" fill="white"/>
<path d="M130.996 112.3C130.996 112.3 91.9191 112.853 82.2195 112.202C82.2195 112.202 90.1289 69.4045 100.562 58.5895C100.951 58.1832 101.362 57.7974 101.795 57.4338C102.433 56.9225 102.345 52.8389 102.646 52.5307C102.947 52.2225 115.625 53.8125 115.787 54.1067C115.948 54.4009 116.601 58.2533 116.601 58.2533C119.477 61.7556 128.729 73.8593 129.808 78.8535C130.886 83.8477 127.489 89.3603 127.489 89.3603L130.996 112.3Z" fill="#FFC727"/>
<path d="M97.5763 66.2245C95.2651 76.8573 96.6372 99.846 101.979 104.049C110.783 110.927 131.943 112.937 137.85 113.603C140.396 113.89 145.466 97.9828 143.719 95.9305C141.973 93.8782 115.963 90.6841 114.723 89.6265C113.865 88.87 109.822 74.9801 106.337 67.1491C101.648 56.5513 98.4201 62.3019 97.5763 66.2245Z" fill="#EB9481"/>
<path d="M139.317 94.6488C139.317 94.6488 147.124 94.5717 152.23 94.7538C155.084 94.8519 159.949 95.4543 162.011 96.4349C165.085 97.9128 176.971 105.968 174.983 108.763C173.185 111.291 169.649 107.964 169.649 107.964C169.649 107.964 173.875 111.249 171.285 113.239C168.695 115.228 164.505 110.479 164.505 110.479C164.505 110.479 169.245 113.673 166.266 115.536C163.684 117.161 158.261 112.174 158.261 112.174C158.261 112.174 163.625 114.976 161.145 116.916C158.408 119.017 149.295 112.517 149.295 112.517C142.765 113.918 138.649 113.918 133.851 113.169C132.97 113.029 139.317 94.6488 139.317 94.6488Z" fill="#EB9481"/>
<path d="M165.811 111.586L164.747 110.514C164.089 109.804 163.388 109.13 162.649 108.497C161.915 107.894 161.182 107.32 160.374 106.773C159.567 106.227 158.658 105.681 157.851 105.085C157.784 105.036 157.711 105.127 157.784 105.169C158.586 105.759 159.355 106.388 160.088 107.054C160.822 107.684 161.556 108.328 162.289 108.966C163.023 109.603 163.757 110.171 164.491 110.78C164.85 111.081 165.224 111.396 165.554 111.712C165.867 112.035 166.209 112.333 166.574 112.601C166.611 112.601 166.655 112.601 166.633 112.545C166.396 112.198 166.12 111.877 165.811 111.586Z" fill="#263238"/>
<path d="M170.514 108.665C169.337 107.307 168.062 106.029 166.699 104.84C165.319 103.66 163.817 102.615 162.216 101.723C162.157 101.723 162.099 101.765 162.143 101.807C163.522 102.991 164.924 104.154 166.325 105.31C167.007 105.877 170.03 108.553 170.382 108.812C170.463 108.854 170.566 108.742 170.514 108.665Z" fill="#263238"/>
<path d="M161.46 114.444C160.319 113.19 159.093 112.009 157.792 110.906C156.36 109.9 154.852 108.996 153.28 108.203C153.221 108.203 153.162 108.259 153.214 108.294C154.637 109.302 156.075 110.276 157.447 111.348C158.122 111.873 160.661 114.1 161.35 114.542C161.424 114.584 161.504 114.5 161.46 114.444Z" fill="#263238"/>
<path d="M131.995 114.261L141.305 93.5351C141.305 93.5351 115.802 89.5075 115.017 89.0172C114.232 88.5269 109.58 72.3605 106.594 66.0145C103.607 59.6684 98.4788 55.942 96.4978 69.5657C94.5168 83.1895 97.3856 99.8251 100.254 103.285C103.732 107.474 117.504 112.776 131.995 114.261Z" fill="#FFC727"/>
<path d="M118.891 111.642C115.075 110.654 111.355 108.931 107.709 107.439C104.576 106.185 101.377 104.637 99.638 101.702C98.8273 100.208 98.2607 98.604 97.9578 96.9462C97.5543 95.097 97.2241 93.2268 96.9453 91.3426C96.6078 89.1945 96.3046 87.0418 96.0355 84.8844C95.9035 83.7777 95.7714 82.671 95.654 81.5643C95.5366 80.4576 95.3238 79.3509 95.2798 78.2372C95.2798 78.2223 95.2736 78.2081 95.2626 78.1976C95.2516 78.187 95.2367 78.1812 95.2211 78.1812C95.2055 78.1812 95.1906 78.187 95.1796 78.1976C95.1686 78.2081 95.1624 78.2223 95.1624 78.2372C95.2431 79.2598 95.1624 80.2895 95.2505 81.3192C95.2505 82.0196 95.3385 82.664 95.3899 83.3365L95.1844 82.9092C94.9585 82.4185 94.7863 81.9068 94.6708 81.3822C94.6708 81.3192 94.5461 81.3472 94.5608 81.3822C94.6928 81.9075 94.8249 82.4399 94.979 82.9582C95.0524 83.2104 95.1404 83.4625 95.2431 83.7147C95.3046 83.884 95.3756 84.05 95.4559 84.212C95.632 86.2246 95.8594 88.2279 96.1383 90.2219C96.4097 92.1551 96.7252 94.0743 97.0847 95.9936C97.3509 97.691 97.8237 99.353 98.4935 100.946C99.1597 102.447 100.179 103.782 101.472 104.847C102.813 105.898 104.293 106.774 105.875 107.453C109.451 109.03 113.147 110.346 116.932 111.389C121.459 112.748 122.838 112.657 118.891 111.642Z" fill="#263238"/>
<path d="M128.465 91.3775C127.526 91.2584 116.425 89.031 115.992 88.9119C115.776 88.8488 115.58 88.733 115.424 88.5758C115.269 88.4186 115.158 88.2255 115.105 88.0153C114.76 87.1608 114.459 86.2852 114.136 85.4237C113.579 83.9387 113.011 82.4608 112.434 80.9898C112.434 80.6606 112.368 80.2894 112.331 80.0022C112.295 79.715 112.221 79.2177 112.155 78.8255C112.008 77.9779 111.744 77.1444 111.634 76.2968C111.634 76.2128 111.495 76.2408 111.517 76.2968C111.74 77.1314 111.873 77.9858 111.913 78.8465C111.95 79.1827 111.972 79.5469 111.994 79.8621C111.656 79.0006 111.311 78.139 110.952 77.2845C110.534 76.2898 110.057 75.2882 109.719 74.2655C109.719 74.1955 109.587 74.2305 109.609 74.2655C109.991 75.1831 110.262 76.1568 110.563 77.0673C110.864 77.9779 111.187 78.9585 111.509 79.9041C112.14 81.7603 112.808 83.6025 113.483 85.4517C113.806 86.3413 114.121 87.2449 114.466 88.1274C114.561 88.4579 114.747 88.7579 115.006 88.9958C115.264 89.2337 115.584 89.4007 115.934 89.4793C117.863 89.9766 127.299 91.4686 128.443 91.5106C128.561 91.5806 128.59 91.3915 128.465 91.3775Z" fill="#263238"/>
<path d="M136.587 93.8573C135.12 96.8342 133.652 99.7901 132.324 102.83C130.981 105.821 129.803 108.876 128.795 111.985C128.789 111.999 128.79 112.014 128.796 112.028C128.802 112.042 128.814 112.053 128.828 112.058C128.843 112.064 128.859 112.064 128.874 112.058C128.888 112.052 128.899 112.041 128.905 112.027C130.373 109.106 131.657 106.073 132.955 103.068C134.254 100.063 135.435 96.9743 136.749 93.9623C136.815 93.8363 136.646 93.7382 136.587 93.8573Z" fill="#263238"/>
<path d="M164.014 91.4896C162.891 92.092 156.464 90.3969 153.859 92.2601C152.135 93.4929 150.447 96.4628 150.081 100.336C149.706 104.336 153.015 104.133 154.241 102.438C155.734 100.206 157.037 97.8638 158.137 95.4332C159.315 95.6572 160.477 95.9544 161.615 96.3227L164.014 91.4896Z" fill="#AD6359"/>
<path d="M156.134 105.449C154.145 103.46 144.211 110.752 147.329 114.065C150.447 117.378 158.379 107.705 156.134 105.449Z" fill="#AD6359"/>
<path d="M159.45 108.3C157.462 106.311 147.527 113.603 150.645 116.916C153.764 120.229 161.695 110.556 159.45 108.3Z" fill="#AD6359"/>
<path d="M162.062 109.309C159.971 107.761 152.003 115.711 155.341 118.303C158.68 120.895 164.432 111.06 162.062 109.309Z" fill="#AD6359"/>
<path d="M164.902 109.743C162.502 108.868 157.447 118.394 161.314 119.9C165.18 121.406 167.624 110.703 164.902 109.743Z" fill="#AD6359"/>
<path d="M155.84 108.728C155.288 109.08 154.768 109.476 154.285 109.911C153.749 110.36 153.221 110.815 152.737 111.312C152.264 111.782 151.821 112.278 151.408 112.797C150.976 113.358 150.616 113.967 150.176 114.513C150.168 114.518 150.161 114.525 150.157 114.533C150.152 114.541 150.149 114.549 150.149 114.558C150.149 114.567 150.151 114.576 150.155 114.585C150.159 114.593 150.165 114.6 150.172 114.605C150.18 114.611 150.189 114.614 150.198 114.616C150.208 114.617 150.217 114.616 150.226 114.614C150.235 114.611 150.243 114.606 150.25 114.599C150.256 114.593 150.261 114.585 150.264 114.576C150.699 114.048 151.172 113.549 151.68 113.084C152.157 112.608 152.604 112.111 153.081 111.627C153.558 111.144 153.984 110.675 154.453 110.227C154.923 109.778 155.451 109.316 155.921 108.826C155.943 108.763 155.891 108.7 155.84 108.728Z" fill="#263238"/>
<path d="M159.787 109.617C159.362 110.241 157.872 112.657 157.417 113.267C156.963 113.876 156.486 114.486 156.001 115.081C155.517 115.676 155.048 116.328 154.497 116.888C154.453 116.937 154.534 117.014 154.585 116.965C155.136 116.405 155.737 115.893 156.258 115.305C156.779 114.717 157.256 114.121 157.726 113.498C158.541 112.262 159.276 110.981 159.927 109.659C159.927 109.596 159.824 109.561 159.787 109.617Z" fill="#263238"/>
<path d="M162.546 110.976C162.106 111.901 161.725 112.861 161.277 113.778C161.057 114.233 160.829 114.689 160.609 115.179L160.301 115.844C160.204 116.109 160.081 116.365 159.934 116.608C159.89 116.664 160.008 116.727 160.037 116.65C160.184 116.373 160.356 116.108 160.551 115.858C160.675 115.648 160.807 115.438 160.925 115.228C161.174 114.761 161.402 114.306 161.607 113.862C162.036 112.955 162.394 112.018 162.678 111.06C162.69 111.044 162.694 111.023 162.69 111.004C162.686 110.984 162.674 110.966 162.656 110.955C162.639 110.944 162.617 110.94 162.597 110.944C162.576 110.948 162.558 110.96 162.546 110.976Z" fill="#263238"/>
<path d="M169.024 31.3638C168.673 34.5634 167.398 37.6071 165.341 40.1553C163.284 42.7034 160.526 44.6559 157.374 45.7949C154.223 46.9339 150.801 47.2147 147.492 46.6058C144.183 45.997 141.117 44.5225 138.634 42.3468L129.529 43.6216L134.085 36.1128C132.901 33.335 132.491 30.3119 132.894 27.3378C133.298 24.3637 134.501 21.5401 136.388 19.1419C138.274 16.7438 140.779 14.8529 143.658 13.6535C146.537 12.454 149.692 11.9869 152.817 12.2975C157.613 12.7762 162.015 15.0532 165.054 18.6283C168.093 22.2034 169.521 26.784 169.024 31.3638Z" fill="white"/>
<path d="M169.025 31.3633C168.671 34.5618 167.402 37.6056 165.356 40.1609C164.85 40.799 164.301 41.405 163.713 41.9751C163.106 42.5286 162.464 43.0456 161.79 43.5231C160.448 44.4979 158.965 45.2834 157.388 45.8556C155.82 46.4456 154.172 46.8205 152.494 46.9693C151.655 47.045 150.812 47.0614 149.97 47.0183C149.126 46.9978 148.284 46.9135 147.454 46.7662C144.102 46.1902 140.985 44.735 138.451 42.5635L138.671 42.6265L129.588 43.9013L128.927 43.9994L129.258 43.446L133.785 35.9232V36.2174C132.723 33.7355 132.27 31.0547 132.461 28.3802C132.652 25.7056 133.481 23.1081 134.885 20.7865C136.301 18.4702 138.247 16.4898 140.579 14.9938C143.476 13.1418 146.867 12.1166 150.353 12.0385C153.839 11.9604 157.276 12.8326 160.262 14.5528C163.247 16.273 165.657 18.7699 167.209 21.751C168.761 24.7321 169.391 28.0737 169.025 31.3843V31.3633ZM169.025 31.3633C169.315 28.7485 168.972 26.105 168.024 23.6365C167.075 21.1679 165.546 18.9402 163.553 17.1247C161.561 15.3092 159.159 13.9545 156.532 13.1649C153.905 12.3753 151.123 12.1719 148.4 12.5702C145.706 12.9481 143.136 13.9062 140.887 15.372C138.665 16.8618 136.81 18.7954 135.45 21.0387C134.106 23.289 133.316 25.8015 133.139 28.3864C132.972 30.9649 133.408 33.5465 134.416 35.9442L134.482 36.0983L134.394 36.2454L129.815 43.7402L129.492 43.2779L138.598 42.0591H138.723L138.818 42.1362C141.246 44.3072 144.259 45.7913 147.52 46.4229C148.335 46.578 149.162 46.674 149.992 46.7101C150.82 46.7661 151.652 46.7661 152.48 46.7101C154.141 46.5876 155.776 46.2433 157.337 45.6875C158.914 45.1493 160.398 44.3891 161.739 43.432C163.104 42.5096 164.309 41.3894 165.312 40.1119C167.365 37.5751 168.649 34.5489 169.025 31.3633Z" fill="#263238"/>
<path d="M148.804 39.4605L141.041 31.9517L143.646 29.4932L148.187 33.878L157.616 19.7639L160.704 21.6481L148.804 39.4605Z" fill="#FFC727"/>
</svg>
